<svg width="63" height="75" viewBox="0 0 63 75" fill="none" xmlns="http://www.w3.org/2000/svg">
<g clip-path="url(#clip0)">
<path d="M54.2344 74.9999H8.7785C7.44686 75.0037 6.13178 74.707 4.93284 74.1322C3.73389 73.5574 2.68249 72.7196 1.85824 71.6821C1.05605 70.6855 0.492693 69.5211 0.21074 68.2769C-0.0712133 67.0327 -0.0643901 65.7411 0.230694 64.4999C1.89827 57.5151 5.89336 51.2928 11.5693 46.8402C17.2453 42.3876 24.27 39.9653 31.5064 39.9653C38.7429 39.9653 45.7676 42.3876 51.4435 46.8402C57.1195 51.2928 61.1146 57.5151 62.7822 64.4999C63.0755 65.7421 63.0802 67.0342 62.7961 68.2784C62.5119 69.5227 61.9462 70.6866 61.1418 71.6821C60.3202 72.7193 59.2711 73.5571 58.0742 74.132C56.8773 74.7069 55.5642 75.0037 54.2344 74.9999ZM31.5 46.3092C25.6931 46.2792 20.0481 48.206 15.4894 51.774C10.9307 55.3421 7.72867 60.34 6.40767 65.9491C6.33895 66.2602 6.34126 66.5826 6.41444 66.8928C6.48761 67.2029 6.62979 67.4929 6.83057 67.7414C7.0633 68.0305 7.36017 68.2623 7.69805 68.4188C8.03592 68.5754 8.40568 68.6524 8.7785 68.644H54.2344C54.5966 68.6437 54.954 68.5624 55.2802 68.4061C55.6063 68.2498 55.8928 68.0227 56.1182 67.7414C56.3223 67.4947 56.4666 67.2048 56.5399 66.894C56.6132 66.5833 56.6136 66.26 56.5411 65.9491C55.2221 60.3485 52.0276 55.3571 47.4794 51.7899C42.9313 48.2228 37.2981 46.2907 31.5 46.3092Z" fill="#3F65FF"/>
<path d="M31.5 33.839C28.1265 33.839 24.8286 32.8467 22.0236 30.9875C19.2186 29.1284 17.0323 26.4859 15.7413 23.3943C14.4503 20.3027 14.1125 16.9007 14.7706 13.6187C15.4288 10.3366 17.0533 7.32184 19.4388 4.95561C21.8243 2.58938 24.8636 0.977953 28.1724 0.325111C31.4811 -0.327731 34.9107 0.00733092 38.0275 1.28793C41.1443 2.56852 43.8083 4.73714 45.6826 7.51953C47.5568 10.3019 48.5572 13.5731 48.5572 16.9195C48.5538 21.4058 46.7556 25.7074 43.5575 28.8797C40.3594 32.052 36.0228 33.8356 31.5 33.839ZM31.5 6.35594C29.3938 6.35594 27.3348 6.97548 25.5835 8.13622C23.8322 9.29696 22.4672 10.9468 21.6612 12.877C20.8551 14.8072 20.6442 16.9312 21.0552 18.9803C21.4661 21.0295 22.4803 22.9117 23.9697 24.3891C25.4591 25.8664 27.3566 26.8725 29.4224 27.2801C31.4882 27.6877 33.6295 27.4785 35.5754 26.679C37.5214 25.8794 39.1846 24.5255 40.3548 22.7883C41.525 21.0511 42.1495 19.0088 42.1495 16.9195C42.1462 14.1189 41.0231 11.434 39.0266 9.45365C37.0302 7.47333 34.3234 6.3593 31.5 6.35594Z" fill="#3F65FF"/>
</g>
<defs>
<clipPath id="clip0">
<rect width="63" height="75" fill="white"/>
</clipPath>
</defs>
</svg>
