<svg width="20" height="20" viewBox="0 0 20 20" fill="none" xmlns="http://www.w3.org/2000/svg">
<g clip-path="url(#clip0)">
<path d="M10 20C8.02219 20 6.08879 19.4135 4.4443 18.3147C2.79981 17.2159 1.51809 15.6541 0.761209 13.8268C0.00433283 11.9996 -0.193701 9.98891 0.192152 8.0491C0.578004 6.10929 1.53041 4.32746 2.92894 2.92894C4.32746 1.53041 6.10929 0.578004 8.0491 0.192152C9.98891 -0.193701 11.9996 0.00433283 13.8268 0.761209C15.6541 1.51809 17.2159 2.79981 18.3147 4.4443C19.4135 6.08879 20 8.02219 20 10C19.9973 12.6513 18.9429 15.1933 17.0681 17.0681C15.1933 18.9429 12.6513 19.9973 10 20ZM10 1.69492C8.35741 1.69492 6.75171 2.182 5.38595 3.09458C4.02018 4.00715 2.9557 5.30423 2.32711 6.82179C1.69851 8.33934 1.53405 10.0092 1.8545 11.6202C2.17495 13.2313 2.96594 14.7111 4.12742 15.8726C5.28891 17.0341 6.76873 17.8251 8.37976 18.1455C9.99079 18.466 11.6607 18.3015 13.1782 17.6729C14.6958 17.0443 15.9929 15.9798 16.9054 14.6141C17.818 13.2483 18.3051 11.6426 18.3051 10C18.3024 7.79819 17.4265 5.68732 15.8696 4.1304C14.3127 2.57347 12.2018 1.69761 10 1.69492Z" fill="#4F4F4F"/>
<path d="M14.7762 17.5289C14.4374 16.531 13.7945 15.6642 12.9379 15.0504C12.0812 14.4366 11.0538 14.1065 9.99996 14.1065C8.94609 14.1065 7.91869 14.4366 7.06204 15.0504C6.20539 15.6642 5.56251 16.531 5.22369 17.5289L3.6203 16.9831C4.07366 15.651 4.93265 14.4942 6.07678 13.675C7.22092 12.8558 8.59279 12.4153 9.99996 12.4153C11.4071 12.4153 12.779 12.8558 13.9231 13.675C15.0673 14.4942 15.9263 15.651 16.3796 16.9831L14.7762 17.5289Z" fill="#4F4F4F"/>
<path d="M10 11.5492C9.27459 11.5492 8.56546 11.334 7.96229 10.931C7.35913 10.528 6.88902 9.95517 6.61141 9.28497C6.3338 8.61476 6.26117 7.87729 6.40269 7.16581C6.54421 6.45433 6.89354 5.80079 7.40649 5.28784C7.91944 4.77489 8.57298 4.42556 9.28446 4.28404C9.99594 4.14252 10.7334 4.21515 11.4036 4.49276C12.0738 4.77036 12.6467 5.24048 13.0497 5.84364C13.4527 6.44681 13.6678 7.15594 13.6678 7.88136C13.6669 8.85385 13.2802 9.78624 12.5925 10.4739C11.9049 11.1615 10.9725 11.5483 10 11.5492ZM10 5.90848C9.60981 5.90848 9.22838 6.02419 8.90394 6.24097C8.5795 6.45775 8.32663 6.76587 8.17731 7.12637C8.02798 7.48687 7.98892 7.88355 8.06504 8.26625C8.14116 8.64895 8.32906 9.00049 8.60497 9.2764C8.88089 9.55231 9.23242 9.74021 9.61512 9.81633C9.99782 9.89246 10.3945 9.85339 10.755 9.70407C11.1155 9.55474 11.4236 9.30187 11.6404 8.97744C11.8572 8.653 11.9729 8.27156 11.9729 7.88136C11.972 7.3584 11.7639 6.85711 11.3941 6.48731C11.0243 6.11752 10.523 5.90938 10 5.90848Z" fill="#4F4F4F"/>
</g>
<defs>
<clipPath id="clip0">
<rect width="20" height="20" fill="white"/>
</clipPath>
</defs>
</svg>
