<svg width="20" height="21" viewBox="0 0 20 21" fill="none" xmlns="http://www.w3.org/2000/svg">
<g clip-path="url(#clip0)">
<path d="M9.99821 20.822C8.20466 20.822 6.45139 20.2875 4.96016 19.2861C3.46892 18.2847 2.3067 16.8613 1.6205 15.1961C0.934299 13.5308 0.754935 11.6985 1.1051 9.93077C1.45526 8.16307 2.31921 6.53943 3.58769 5.2652C4.85617 3.99097 6.47219 3.1234 8.23136 2.7722C9.99054 2.421 11.8138 2.60195 13.4707 3.29218C15.1275 3.9824 16.5434 5.15089 17.5394 6.64985C18.5353 8.14882 19.0665 9.91092 19.0658 11.7133C19.063 14.1288 18.1067 16.4446 16.4067 18.1523C14.7067 19.86 12.4019 20.8201 9.99821 20.822ZM9.99821 4.36564C8.5521 4.36564 7.13846 4.79657 5.93606 5.60394C4.73366 6.41131 3.7965 7.55886 3.2431 8.90147C2.6897 10.2441 2.5449 11.7215 2.82702 13.1468C3.10915 14.5721 3.80552 15.8813 4.82807 16.9089C5.85063 17.9365 7.15345 18.6363 8.57177 18.9198C9.9901 19.2033 11.4602 19.0578 12.7963 18.5017C14.1323 17.9455 15.2742 17.0038 16.0776 15.7954C16.8811 14.5871 17.3099 13.1665 17.3099 11.7133C17.308 9.76515 16.5371 7.89733 15.1663 6.51978C13.7955 5.14223 11.9368 4.36751 9.99821 4.36564Z" fill="#3F65FF"/>
<path d="M12.3618 15.5635C12.2136 15.5621 12.0684 15.522 11.9403 15.4471L9.57335 14.0743C9.43949 13.9974 9.32812 13.8865 9.25045 13.7527C9.17277 13.6189 9.13153 13.4669 9.13086 13.312V8.74172C9.13086 8.50772 9.22336 8.28331 9.38801 8.11785C9.55266 7.95239 9.77597 7.85944 10.0088 7.85944C10.2417 7.85944 10.465 7.95239 10.6296 8.11785C10.7943 8.28331 10.8868 8.50772 10.8868 8.74172V12.8038L12.8148 13.919C12.9824 14.0171 13.1129 14.1682 13.186 14.3487C13.2591 14.5291 13.2707 14.7289 13.219 14.9167C13.1673 15.1045 13.0551 15.2699 12.9 15.3869C12.7449 15.5039 12.5557 15.566 12.3618 15.5635Z" fill="#3F65FF"/>
<path d="M19.122 5.87964C18.9784 5.88018 18.8369 5.84503 18.71 5.77729C18.5832 5.70956 18.475 5.61136 18.3951 5.49143C17.1869 3.6903 15.3888 2.37162 13.3134 1.76466C13.2025 1.73291 13.0989 1.67952 13.0085 1.60754C12.9181 1.53556 12.8427 1.44639 12.7866 1.34512C12.6734 1.14062 12.6456 0.899261 12.7094 0.674156C12.7732 0.449052 12.9233 0.258636 13.1269 0.144799C13.3304 0.0309626 13.5705 0.00302923 13.7945 0.0671442C16.2673 0.78793 18.4099 2.35785 19.849 4.50327C19.9382 4.63594 19.9898 4.79052 19.9983 4.95042C20.0068 5.11033 19.9718 5.26954 19.8971 5.41099C19.8224 5.55243 19.7108 5.67078 19.5742 5.75334C19.4377 5.8359 19.2814 5.87956 19.122 5.87964Z" fill="#3F65FF"/>
<path d="M0.877965 5.84783C0.718053 5.84819 0.561079 5.80465 0.423989 5.72191C0.286899 5.63918 0.174898 5.52038 0.100077 5.37836C0.0252556 5.23633 -0.00954504 5.07647 -0.000568592 4.91602C0.00840786 4.75558 0.0608205 4.60064 0.151012 4.46794C1.60097 2.33912 3.73469 0.775495 6.19491 0.0388712C6.30615 0.00292871 6.4234 -0.0103387 6.53981 -0.000153511C6.65621 0.0100317 6.76943 0.0434646 6.87281 0.0981857C6.97619 0.152907 7.06766 0.227815 7.14186 0.31852C7.21606 0.409226 7.2715 0.513903 7.30493 0.626417C7.33835 0.73893 7.34909 0.857017 7.33652 0.973756C7.32394 1.09049 7.28831 1.20354 7.2317 1.30626C7.17509 1.40898 7.09864 1.49931 7.00685 1.57196C6.91505 1.6446 6.80974 1.69811 6.6971 1.72933C4.62399 2.34861 2.82599 3.66575 1.60492 5.45963C1.52455 5.57911 1.41626 5.67698 1.28953 5.74466C1.16279 5.81234 1.02148 5.84776 0.877965 5.84783Z" fill="#3F65FF"/>
</g>
<defs>
<clipPath id="clip0">
<rect width="20" height="20.8219" fill="white"/>
</clipPath>
</defs>
</svg>
