<svg width="76" height="42" viewBox="0 0 76 42" fill="none" xmlns="http://www.w3.org/2000/svg">
<path d="M38.645 42.0009C38.2217 42.0024 37.8023 41.9197 37.411 41.7575C37.0196 41.5953 36.6642 41.3569 36.365 41.0561L0.941233 5.52757C0.33654 4.91998 -0.00317384 4.09592 -0.00317383 3.23666C-0.00317382 2.3774 0.336539 1.55334 0.941233 0.945752C1.54593 0.338165 2.36607 -0.00317382 3.22123 -0.00317383C4.0764 -0.00317384 4.89654 0.338165 5.50123 0.945752L38.645 34.1963L70.5005 2.12356C71.1071 1.53323 71.9201 1.20588 72.7645 1.21202C73.6089 1.21817 74.4171 1.55733 75.0151 2.15643C75.613 2.75554 75.9528 3.56666 75.9613 4.41509C75.9698 5.26351 75.6464 6.08135 75.0606 6.69244L40.8606 41.0561C40.2721 41.6481 39.4776 41.9869 38.645 42.0009Z" fill="white"/>
</svg>
