<svg width="14" height="24" viewBox="0 0 14 24" fill="none" xmlns="http://www.w3.org/2000/svg">
<g clip-path="url(#clip0)">
<path d="M1.02529 24.0003C0.89056 24.0008 0.757072 23.9748 0.63252 23.9238C0.507969 23.8728 0.394817 23.7979 0.299588 23.7034C0.108795 23.5115 0.00182072 23.2529 0.00182072 22.9834C0.00182072 22.7139 0.108795 22.4552 0.299588 22.2634L10.6603 12.0003L0.299588 1.73726C0.10712 1.5463 -0.00100708 1.28731 -0.00100708 1.01726C-0.00100708 0.747205 0.10712 0.488213 0.299588 0.297257C0.492055 0.106301 0.753097 -0.00097656 1.02529 -0.000976562C1.29748 -0.000976565 1.55852 0.106301 1.75099 0.297257L12.821 11.2803C13.0118 11.4721 13.1188 11.7308 13.1188 12.0003C13.1188 12.2698 13.0118 12.5285 12.821 12.7203L1.75099 23.7034C1.65576 23.7979 1.54261 23.8728 1.41805 23.9238C1.2935 23.9748 1.16002 24.0008 1.02529 24.0003Z" fill="white"/>
</g>
<defs>
<clipPath id="clip0">
<rect width="13.12" height="24" fill="white"/>
</clipPath>
</defs>
</svg>
