<svg width="20" height="23" viewBox="0 0 20 23" fill="none" xmlns="http://www.w3.org/2000/svg">
<path d="M14.9057 13.6441H14.5283C14.2781 13.6441 14.0381 13.5414 13.8612 13.3587C13.6843 13.1759 13.5849 12.928 13.5849 12.6695C13.5849 12.411 13.6843 12.1632 13.8612 11.9804C14.0381 11.7976 14.2781 11.6949 14.5283 11.6949H14.9057C15.1559 11.6949 15.3958 11.7976 15.5727 11.9804C15.7497 12.1632 15.8491 12.411 15.8491 12.6695C15.8491 12.928 15.7497 13.1759 15.5727 13.3587C15.3958 13.5414 15.1559 13.6441 14.9057 13.6441Z" fill="#3F65FF"/>
<path d="M14.9057 19.1017H14.5283C14.2781 19.1017 14.0381 18.999 13.8612 18.8162C13.6843 18.6335 13.5849 18.3856 13.5849 18.1271C13.5849 17.8686 13.6843 17.6207 13.8612 17.438C14.0381 17.2552 14.2781 17.1525 14.5283 17.1525H14.9057C15.1559 17.1525 15.3958 17.2552 15.5727 17.438C15.7497 17.6207 15.8491 17.8686 15.8491 18.1271C15.8491 18.3856 15.7497 18.6335 15.5727 18.8162C15.3958 18.999 15.1559 19.1017 14.9057 19.1017Z" fill="#3F65FF"/>
<path d="M5.47169 13.6441H5.09434C4.84413 13.6441 4.60418 13.5414 4.42725 13.3587C4.25033 13.1759 4.15094 12.928 4.15094 12.6695C4.15094 12.411 4.25033 12.1632 4.42725 11.9804C4.60418 11.7976 4.84413 11.6949 5.09434 11.6949H5.47169C5.7219 11.6949 5.96186 11.7976 6.13878 11.9804C6.3157 12.1632 6.41509 12.411 6.41509 12.6695C6.41509 12.928 6.3157 13.1759 6.13878 13.3587C5.96186 13.5414 5.7219 13.6441 5.47169 13.6441Z" fill="#3F65FF"/>
<path d="M5.47169 19.1017H5.09434C4.84413 19.1017 4.60418 18.999 4.42725 18.8162C4.25033 18.6335 4.15094 18.3856 4.15094 18.1271C4.15094 17.8686 4.25033 17.6207 4.42725 17.438C4.60418 17.2552 4.84413 17.1525 5.09434 17.1525H5.47169C5.7219 17.1525 5.96186 17.2552 6.13878 17.438C6.3157 17.6207 6.41509 17.8686 6.41509 18.1271C6.41509 18.3856 6.3157 18.6335 6.13878 18.8162C5.96186 18.999 5.7219 19.1017 5.47169 19.1017Z" fill="#3F65FF"/>
<path d="M10.1887 13.6441H9.81132C9.56111 13.6441 9.32116 13.5414 9.14423 13.3587C8.96731 13.1759 8.86792 12.928 8.86792 12.6695C8.86792 12.411 8.96731 12.1632 9.14423 11.9804C9.32116 11.7976 9.56111 11.6949 9.81132 11.6949H10.1887C10.4389 11.6949 10.6788 11.7976 10.8558 11.9804C11.0327 12.1632 11.1321 12.411 11.1321 12.6695C11.1321 12.928 11.0327 13.1759 10.8558 13.3587C10.6788 13.5414 10.4389 13.6441 10.1887 13.6441Z" fill="#3F65FF"/>
<path d="M10.1887 19.1017H9.81132C9.56111 19.1017 9.32116 18.999 9.14423 18.8162C8.96731 18.6335 8.86792 18.3856 8.86792 18.1271C8.86792 17.8686 8.96731 17.6207 9.14423 17.438C9.32116 17.2552 9.56111 17.1525 9.81132 17.1525H10.1887C10.4389 17.1525 10.6788 17.2552 10.8558 17.438C11.0327 17.6207 11.1321 17.8686 11.1321 18.1271C11.1321 18.3856 11.0327 18.6335 10.8558 18.8162C10.6788 18.999 10.4389 19.1017 10.1887 19.1017Z" fill="#3F65FF"/>
<path d="M14.717 4.67797C14.4668 4.67797 14.2269 4.57529 14.0499 4.39252C13.873 4.20975 13.7736 3.96186 13.7736 3.70339V0.974576C13.7736 0.716103 13.873 0.468215 14.0499 0.285447C14.2269 0.102678 14.4668 0 14.717 0C14.9672 0 15.2072 0.102678 15.3841 0.285447C15.561 0.468215 15.6604 0.716103 15.6604 0.974576V3.70339C15.6604 3.83137 15.636 3.9581 15.5886 4.07634C15.5412 4.19459 15.4717 4.30202 15.3841 4.39252C15.2965 4.48302 15.1925 4.5548 15.078 4.60378C14.9636 4.65276 14.8409 4.67797 14.717 4.67797Z" fill="#3F65FF"/>
<path d="M5.28306 4.67797C5.03285 4.67797 4.7929 4.57529 4.61597 4.39252C4.43905 4.20975 4.33966 3.96186 4.33966 3.70339V0.974576C4.33966 0.716103 4.43905 0.468215 4.61597 0.285447C4.7929 0.102678 5.03285 0 5.28306 0C5.53326 0 5.77322 0.102678 5.95014 0.285447C6.12706 0.468215 6.22645 0.716103 6.22645 0.974576V3.70339C6.22645 3.83137 6.20205 3.9581 6.15464 4.07634C6.10723 4.19459 6.03774 4.30202 5.95014 4.39252C5.86254 4.48302 5.75854 4.5548 5.64408 4.60378C5.52962 4.65276 5.40694 4.67797 5.28306 4.67797Z" fill="#3F65FF"/>
<path d="M16.0377 23.0001H3.96226C2.91171 22.999 1.90448 22.5675 1.16162 21.8C0.418772 21.0326 0.000999098 19.9921 0 18.9068L0 6.8221C0.000999098 5.73683 0.418772 4.6963 1.16162 3.9289C1.90448 3.16149 2.91171 2.72991 3.96226 2.72888H16.0377C17.0883 2.72991 18.0955 3.16149 18.8384 3.9289C19.5812 4.6963 19.999 5.73683 20 6.8221V18.9068C19.999 19.9921 19.5812 21.0326 18.8384 21.8C18.0955 22.5675 17.0883 22.999 16.0377 23.0001ZM3.96226 4.67803C3.41212 4.67906 2.8848 4.90529 2.49579 5.30716C2.10678 5.70902 1.88779 6.25378 1.88679 6.8221V18.9068C1.88779 19.4752 2.10678 20.0199 2.49579 20.4218C2.8848 20.8237 3.41212 21.0499 3.96226 21.0509H16.0377C16.5879 21.0499 17.1152 20.8237 17.5042 20.4218C17.8932 20.0199 18.1122 19.4752 18.1132 18.9068V6.8221C18.1122 6.25378 17.8932 5.70902 17.5042 5.30716C17.1152 4.90529 16.5879 4.67906 16.0377 4.67803H3.96226Z" fill="#3F65FF"/>
<path d="M19.0566 9.74579H0.943396C0.693192 9.74579 0.453235 9.64311 0.276314 9.46034C0.0993932 9.27757 0 9.02968 0 8.77121C0 8.51273 0.0993932 8.26485 0.276314 8.08208C0.453235 7.89931 0.693192 7.79663 0.943396 7.79663H19.0566C19.3068 7.79663 19.5468 7.89931 19.7237 8.08208C19.9006 8.26485 20 8.51273 20 8.77121C20 9.02968 19.9006 9.27757 19.7237 9.46034C19.5468 9.64311 19.3068 9.74579 19.0566 9.74579Z" fill="#3F65FF"/>
</svg>
