<svg width="92" height="65" viewBox="0 0 92 65" fill="none" xmlns="http://www.w3.org/2000/svg">
<path d="M90.7058 48.5838H87.514V30.6503C87.514 28.5405 86.8815 26.4884 85.7169 24.7399L77.7232 12.8468C75.7679 9.92775 72.5042 8.19364 69.0106 8.19364H56.6174C55.1653 8.19364 53.9864 9.37861 53.9864 10.8382V48.5838H33.6858C35.6123 50.2457 36.935 52.5867 37.3232 55.2312H58.7309C59.4929 49.9856 63.9786 45.9538 69.3988 45.9538C74.819 45.9538 79.3047 50 80.0667 55.2312H90.6914C91.4103 55.2312 91.9997 54.6387 91.9997 53.9162V49.9133C92.0141 49.1618 91.4247 48.5838 90.7058 48.5838ZM77.6225 27.1243H61.2613C60.5424 27.1243 59.9529 26.5318 59.9529 25.8092V16.6763C59.9529 15.9538 60.5424 15.3613 61.2613 15.3613H71.2247C71.656 15.3613 72.0585 15.5636 72.303 15.9249L78.6864 25.0578C79.3047 25.9104 78.6864 27.1243 77.6225 27.1243ZM84.3223 44.2197C83.8047 44.2197 83.3878 42.7601 83.3878 40.9682C83.3878 39.1763 83.8047 37.7168 84.3223 37.7168C84.8399 37.7168 85.2568 39.1763 85.2568 40.9682C85.2568 42.7601 84.8399 44.2197 84.3223 44.2197Z" fill="#3F65FF"/>
<path d="M4.5432 44.6243H48.9256C49.6445 44.6243 50.234 44.0318 50.234 43.3092V3.95954C50.234 1.77746 48.4656 0 46.2946 0H7.17423C4.98889 0 3.23487 1.77746 3.23487 3.95954V43.3092C3.23487 44.0318 3.80996 44.6243 4.5432 44.6243Z" fill="#3F65FF"/>
<path d="M19.6249 48.5838H1.30833C0.589465 48.5838 0 49.1763 0 49.8988V53.9017C0 54.6243 0.589465 55.2168 1.30833 55.2168H15.9875C16.3756 52.5723 17.6983 50.2457 19.6249 48.5838ZM2.01281 53.7428C1.53836 53.7428 1.15018 52.9191 1.15018 51.8931C1.15018 50.8671 1.53836 50.0434 2.01281 50.0434C2.48726 50.0434 2.87544 50.8671 2.87544 51.8931C2.87544 52.9191 2.48726 53.7428 2.01281 53.7428Z" fill="#3F65FF"/>
<path d="M26.6553 48.5838C22.1409 48.5838 18.4891 52.2543 18.4891 56.7919C18.4891 61.3295 22.1409 65 26.6553 65C31.1698 65 34.8216 61.3295 34.8216 56.7919C34.8216 52.2543 31.1698 48.5838 26.6553 48.5838ZM26.6553 60.896C24.3981 60.896 22.5722 59.0607 22.5722 56.7919C22.5722 54.5231 24.3981 52.6879 26.6553 52.6879C28.9126 52.6879 30.7385 54.5231 30.7385 56.7919C30.7385 59.0607 28.9126 60.896 26.6553 60.896Z" fill="#3F65FF"/>
<path d="M69.3988 48.5838C64.8843 48.5838 61.2325 52.2543 61.2325 56.7919C61.2325 61.3295 64.8843 65 69.3988 65C73.9132 65 77.565 61.3295 77.565 56.7919C77.565 52.2543 73.9132 48.5838 69.3988 48.5838ZM69.3988 60.896C67.1415 60.896 65.3156 59.0607 65.3156 56.7919C65.3156 54.5231 67.1415 52.6879 69.3988 52.6879C71.656 52.6879 73.4819 54.5231 73.4819 56.7919C73.4819 59.0607 71.656 60.896 69.3988 60.896Z" fill="#3F65FF"/>
</svg>
