<svg width="20" height="19" viewBox="0 0 20 19" fill="none" xmlns="http://www.w3.org/2000/svg">
<g clip-path="url(#clip0)">
<path d="M19.1525 15.7156H0.847458C0.624449 15.7156 0.410422 15.6279 0.251782 15.4715C0.0931416 15.3152 0.00267611 15.1027 0 14.8802L0 8.74214C0.000127787 8.1622 0.142086 7.59106 0.413559 7.07826L2.61356 2.11705C2.89172 1.4873 3.34746 0.951861 3.92527 0.575967C4.50308 0.200073 5.178 -4.37293e-05 5.8678 7.1676e-09H14.1322C14.8218 0.000809772 15.4964 0.201272 16.074 0.577062C16.6517 0.952853 17.1076 1.48782 17.3864 2.11705L19.5864 7.07826C19.8575 7.59121 19.9995 8.16225 20 8.74214V14.8802C19.9973 15.1027 19.9069 15.3152 19.7482 15.4715C19.5896 15.6279 19.3756 15.7156 19.1525 15.7156ZM1.69492 14.0246H18.3051V8.74214C18.3046 8.43144 18.2266 8.12576 18.078 7.8527L18.0475 7.7783L15.8373 2.80019C15.6921 2.47189 15.4549 2.1925 15.1541 1.99568C14.8534 1.79886 14.502 1.69303 14.1424 1.69094H5.8678C5.50814 1.69303 5.15676 1.79886 4.85603 1.99568C4.5553 2.1925 4.31805 2.47189 4.17288 2.80019L1.95254 7.7783L1.92203 7.84256C1.77083 8.11825 1.69266 8.42788 1.69492 8.74214V14.0246Z" fill="white"/>
<path d="M19.1526 18.421H18.4746C18.2516 18.4211 18.0376 18.3334 17.8789 18.177C17.7203 18.0206 17.6298 17.8082 17.6271 17.5857V14.8802C17.6271 14.656 17.7164 14.4409 17.8754 14.2824C18.0343 14.1238 18.2498 14.0348 18.4746 14.0348C18.5914 14.0338 18.707 14.058 18.8136 14.1058C18.9201 14.058 19.0358 14.0338 19.1526 14.0348C19.3773 14.0348 19.5929 14.1238 19.7518 14.2824C19.9107 14.4409 20 14.656 20 14.8802V17.5857C19.9973 17.8082 19.9069 18.0206 19.7482 18.177C19.5896 18.3334 19.3756 18.4211 19.1526 18.421Z" fill="white"/>
<path d="M1.52542 18.421H0.847458C0.624449 18.4211 0.410422 18.3334 0.251782 18.177C0.0931416 18.0206 0.00267611 17.8082 0 17.5857L0 14.8802C0 14.656 0.0892854 14.4409 0.248215 14.2824C0.407144 14.1238 0.622698 14.0348 0.847458 14.0348C0.964262 14.0338 1.0799 14.058 1.18644 14.1058C1.29298 14.058 1.40862 14.0338 1.52542 14.0348C1.63671 14.0348 1.74691 14.0566 1.84973 14.0991C1.95255 14.1416 2.04597 14.2039 2.12467 14.2824C2.20336 14.3609 2.26578 14.4541 2.30837 14.5567C2.35096 14.6593 2.37288 14.7692 2.37288 14.8802V17.5857C2.37021 17.8082 2.27974 18.0206 2.1211 18.177C1.96246 18.3334 1.74843 18.4211 1.52542 18.421Z" fill="white"/>
<path d="M14.2373 12.814C14.9861 12.814 15.5932 12.2083 15.5932 11.4612C15.5932 10.7141 14.9861 10.1085 14.2373 10.1085C13.4884 10.1085 12.8813 10.7141 12.8813 11.4612C12.8813 12.2083 13.4884 12.814 14.2373 12.814Z" fill="white"/>
<path d="M5.7627 12.814C6.51156 12.814 7.11863 12.2083 7.11863 11.4612C7.11863 10.7141 6.51156 10.1085 5.7627 10.1085C5.01384 10.1085 4.40677 10.7141 4.40677 11.4612C4.40677 12.2083 5.01384 12.814 5.7627 12.814Z" fill="white"/>
<path d="M19.0543 8.87062H0.945785C0.721026 8.87062 0.505471 8.78155 0.346542 8.62299C0.187613 8.46443 0.0983276 8.24939 0.0983276 8.02516C0.0983276 7.80092 0.187613 7.58588 0.346542 7.42732C0.505471 7.26876 0.721026 7.17969 0.945785 7.17969H19.0543C19.279 7.17969 19.4946 7.26876 19.6535 7.42732C19.8124 7.58588 19.9017 7.80092 19.9017 8.02516C19.9017 8.24939 19.8124 8.46443 19.6535 8.62299C19.4946 8.78155 19.279 8.87062 19.0543 8.87062Z" fill="white"/>
</g>
<defs>
<clipPath id="clip0">
<rect width="20" height="18.4211" fill="white"/>
</clipPath>
</defs>
</svg>
