<svg width="90" height="36" viewBox="0 0 90 36" fill="none" xmlns="http://www.w3.org/2000/svg">
<path d="M70.9092 20.2159C66.5765 20.2159 63.0562 23.7537 63.0562 28.108C63.0562 32.4622 66.5765 36 70.9092 36C75.2418 36 78.7621 32.4622 78.7621 28.108C78.7621 23.7537 75.2418 20.2159 70.9092 20.2159ZM70.9092 31.9373C68.8008 31.9373 67.0987 30.2268 67.0987 28.108C67.0987 25.9892 68.8008 24.2786 70.9092 24.2786C73.0175 24.2786 74.7196 25.9892 74.7196 28.108C74.7196 30.2268 73.0175 31.9373 70.9092 31.9373Z" fill="#3F65FF"/>
<path d="M18.6461 20.2159C14.3134 20.2159 10.7931 23.7537 10.7931 28.108C10.7931 32.4622 14.3134 36 18.6461 36C22.9788 36 26.4991 32.4622 26.4991 28.108C26.4991 23.7537 22.9788 20.2159 18.6461 20.2159ZM18.6461 31.9373C16.5378 31.9373 14.8356 30.2268 14.8356 28.108C14.8356 25.9892 16.5378 24.2786 18.6461 24.2786C20.7544 24.2786 22.4565 25.9892 22.4565 28.108C22.4565 30.2268 20.7544 31.9373 18.6461 31.9373Z" fill="#3F65FF"/>
<path d="M89.4391 18.3499C89.4391 15.2203 75.0677 11.9157 71.8375 11.0799L70.5029 10.5551C60.8124 4.02374 51.2379 1.80775 44.9903 1.10797C44.971 1.10797 35.6867 -0.874752 19.4004 0.48594C-0.928432 1.80775 0.909091 9.77752 0.909091 9.77752C0.909091 13.3542 1.1412 15.3758 0 18.3887V25.1339C0 28.2635 4.81625 28.7106 7.93037 28.7106L8.43327 28.7494L9.01354 28.7883C8.9942 28.5551 8.9942 28.3218 8.9942 28.0885C8.9942 22.743 13.3269 18.3887 18.646 18.3887C23.9652 18.3887 28.2979 22.743 28.2979 28.0885C28.2979 28.7494 28.2205 29.4103 28.1045 30.0518H61.4507C61.3153 29.4298 61.2573 28.7689 61.2573 28.0885C61.2573 22.743 65.5899 18.3887 70.9091 18.3887C76.2282 18.3887 80.5609 22.743 80.5609 28.0885C80.5609 28.7494 80.4836 29.4103 80.3675 30.0518H81.6828H82.9787C86.0928 30.0518 90 29.7214 90 26.5918L89.4391 18.3499ZM2.80464 23.4427C2.80464 23.6954 2.45648 23.9093 2.05029 23.9093C1.62476 23.9093 1.29594 23.6954 1.29594 23.4427V21.8294C1.29594 21.5767 1.6441 21.3628 2.05029 21.3628C2.47582 21.3628 2.80464 21.5767 2.80464 21.8294V23.4427ZM2.80464 20.352C2.80464 20.6047 2.45648 20.8186 2.05029 20.8186C1.62476 20.8186 1.29594 20.6047 1.29594 20.352V18.7386C1.29594 18.4859 1.6441 18.2721 2.05029 18.2721C2.47582 18.2721 2.80464 18.4859 2.80464 18.7386V20.352ZM38.3559 9.13605C38.3559 10.1274 37.5435 10.9438 36.5571 10.9438H19.0329C18.0464 10.9438 17.234 10.1274 17.234 9.13605V5.20948C17.234 4.21812 18.0464 3.40171 19.0329 3.40171H36.5571C37.5435 3.40171 38.3559 4.21812 38.3559 5.20948V9.13605ZM62.1663 10.7689C59.9226 10.8466 42.6112 10.9827 42.6112 10.9827C42.6112 10.9827 40.9865 10.8078 41.3346 8.28076C41.3346 8.28076 41.0445 3.32395 44.9903 3.40171C48.9362 3.47946 57.4468 4.39307 63.4236 9.42762C63.4236 9.42762 64.3907 10.6911 62.1663 10.7689ZM86.441 21.4211C85.1838 21.4211 85.2805 19.8661 85.2611 19.1468C85.2418 18.4276 82.7466 18.622 82.882 15.9006C82.882 15.9006 87.4662 16.9892 87.6402 19.0885V20.838C87.6402 20.8186 87.6983 21.4211 86.441 21.4211Z" fill="#3F65FF"/>
</svg>
