<svg width="20" height="20" viewBox="0 0 20 20" fill="none" xmlns="http://www.w3.org/2000/svg">
<g clip-path="url(#clip0)">
<path d="M10 20C8.02219 20 6.08879 19.4135 4.4443 18.3147C2.79981 17.2159 1.51809 15.6541 0.761209 13.8268C0.00433283 11.9996 -0.193701 9.98891 0.192152 8.0491C0.578004 6.10929 1.53041 4.32746 2.92894 2.92894C4.32746 1.53041 6.10929 0.578004 8.0491 0.192152C9.98891 -0.193701 11.9996 0.00433283 13.8268 0.761209C15.6541 1.51809 17.2159 2.79981 18.3147 4.4443C19.4135 6.08879 20 8.02219 20 10C19.9973 12.6513 18.9429 15.1933 17.0681 17.0681C15.1933 18.9429 12.6513 19.9973 10 20ZM10 1.69492C8.35741 1.69492 6.75171 2.182 5.38595 3.09458C4.02018 4.00715 2.9557 5.30423 2.32711 6.82179C1.69851 8.33934 1.53405 10.0092 1.8545 11.6202C2.17495 13.2313 2.96594 14.7111 4.12742 15.8726C5.28891 17.0341 6.76873 17.8251 8.37976 18.1455C9.99079 18.466 11.6607 18.3015 13.1782 17.6729C14.6958 17.0443 15.9929 15.9798 16.9054 14.6141C17.818 13.2483 18.3051 11.6426 18.3051 10C18.3024 7.79819 17.4265 5.68732 15.8696 4.1304C14.3127 2.57347 12.2018 1.69761 10 1.69492Z" fill="#3F65FF"/>
<path d="M8.93893 13.3016C8.82753 13.302 8.71717 13.2803 8.61419 13.2379C8.51121 13.1954 8.41766 13.133 8.33893 13.0542L5.89147 10.6067C5.73686 10.4471 5.65112 10.2331 5.65273 10.0109C5.65434 9.78873 5.74317 9.57604 5.90008 9.41868C6.05699 9.26133 6.26942 9.1719 6.49163 9.16966C6.71384 9.16742 6.92803 9.25255 7.08808 9.40671L8.93893 11.2576L12.9118 7.28468C12.9868 7.1936 13.08 7.11918 13.1854 7.06619C13.2908 7.0132 13.4061 6.9828 13.5239 6.97694C13.6418 6.97108 13.7595 6.98988 13.8697 7.03215C13.9798 7.07442 14.0799 7.13922 14.1636 7.22241C14.2472 7.30559 14.3126 7.40533 14.3555 7.51523C14.3984 7.62513 14.4179 7.74278 14.4127 7.86065C14.4075 7.97851 14.3777 8.09399 14.3253 8.1997C14.273 8.3054 14.1991 8.399 14.1084 8.47451L9.53893 13.0542C9.46019 13.133 9.36664 13.1954 9.26366 13.2379C9.16068 13.2803 9.05032 13.302 8.93893 13.3016Z" fill="#3F65FF"/>
</g>
<defs>
<clipPath id="clip0">
<rect width="20" height="20" fill="white"/>
</clipPath>
</defs>
</svg>
