<svg width="75" height="58" viewBox="0 0 75 58" fill="none" xmlns="http://www.w3.org/2000/svg">
<path d="M64.1949 58H10.8051C7.94043 57.9966 5.19407 56.8413 3.16845 54.7874C1.14283 52.7336 0.00336425 49.949 0 47.0444L0 10.9556C0.00336425 8.05101 1.14283 5.2664 3.16845 3.21258C5.19407 1.15875 7.94043 0.0034111 10.8051 0L64.1949 0C67.0596 0.0034111 69.8059 1.15875 71.8316 3.21258C73.8572 5.2664 74.9966 8.05101 75 10.9556V47.0444C74.9966 49.949 73.8572 52.7336 71.8316 54.7874C69.8059 56.8413 67.0596 57.9966 64.1949 58ZM10.8051 6.44444C9.6251 6.44444 8.49344 6.91972 7.65906 7.76572C6.82468 8.61172 6.35593 9.75914 6.35593 10.9556V47.0444C6.35593 48.2409 6.82468 49.3883 7.65906 50.2343C8.49344 51.0803 9.6251 51.5556 10.8051 51.5556H64.1949C65.3749 51.5556 66.5066 51.0803 67.3409 50.2343C68.1753 49.3883 68.6441 48.2409 68.6441 47.0444V10.9556C68.6441 9.75914 68.1753 8.61172 67.3409 7.76572C66.5066 6.91972 65.3749 6.44444 64.1949 6.44444H10.8051Z" fill="#3F65FF"/>
<path d="M34.2204 46.4902H17.8856C17.1024 46.4929 16.3288 46.3143 15.6239 45.9681C14.919 45.6219 14.3013 45.1172 13.8178 44.4924C13.3413 43.8832 13.0068 43.1725 12.8395 42.4136C12.6722 41.6547 12.6764 40.8672 12.8517 40.1102C13.5586 37.0975 15.2468 34.4145 17.6434 32.4948C20.0401 30.5751 23.0051 29.5309 26.0593 29.5309C29.1136 29.5309 32.0786 30.5751 34.4753 32.4948C36.8719 34.4145 38.5601 37.0975 39.267 40.1102C39.4423 40.8672 39.4465 41.6547 39.2792 42.4136C39.1119 43.1725 38.7774 43.8832 38.3009 44.4924C37.8154 45.1182 37.1955 45.6235 36.4884 45.9697C35.7813 46.3159 35.0056 46.4939 34.2204 46.4902ZM19.5763 40.0458H32.5424C31.9444 38.8203 31.0205 37.7887 29.875 37.0675C28.7294 36.3462 27.4078 35.964 26.0593 35.964C24.7109 35.964 23.3893 36.3462 22.2437 37.0675C21.0981 37.7887 20.1742 38.8203 19.5763 40.0458Z" fill="#3F65FF"/>
<path d="M26.0593 28.2653C24.4251 28.2653 22.8276 27.774 21.4688 26.8534C20.11 25.9329 19.051 24.6244 18.4256 23.0936C17.8002 21.5627 17.6366 19.8783 17.9554 18.2531C18.2742 16.628 19.0612 15.1352 20.2167 13.9636C21.3723 12.7919 22.8446 11.994 24.4474 11.6707C26.0502 11.3475 27.7115 11.5134 29.2213 12.1475C30.7312 12.7816 32.0216 13.8554 32.9295 15.2331C33.8375 16.6108 34.3221 18.2306 34.3221 19.8875C34.3187 22.1084 33.4471 24.2374 31.8983 25.8078C30.3494 27.3782 28.2497 28.2619 26.0593 28.2653ZM26.0593 17.9542C25.6822 17.9542 25.3136 18.0676 25 18.28C24.6864 18.4925 24.442 18.7944 24.2977 19.1477C24.1534 19.501 24.1156 19.8897 24.1892 20.2647C24.2628 20.6398 24.4444 20.9842 24.711 21.2546C24.9777 21.525 25.3175 21.7091 25.6874 21.7837C26.0572 21.8583 26.4406 21.82 26.789 21.6737C27.1375 21.5274 27.4353 21.2796 27.6448 20.9617C27.8543 20.6437 27.9661 20.2699 27.9661 19.8875C27.9661 19.3748 27.7652 18.883 27.4076 18.5205C27.05 18.1579 26.5651 17.9542 26.0593 17.9542Z" fill="#3F65FF"/>
<path d="M59.1102 24.4889H47.6695C46.8266 24.4889 46.0183 24.1494 45.4223 23.5451C44.8263 22.9408 44.4915 22.1212 44.4915 21.2667C44.4915 20.4121 44.8263 19.5925 45.4223 18.9882C46.0183 18.3839 46.8266 18.0444 47.6695 18.0444H59.1102C59.953 18.0444 60.7613 18.3839 61.3573 18.9882C61.9533 19.5925 62.2881 20.4121 62.2881 21.2667C62.2881 22.1212 61.9533 22.9408 61.3573 23.5451C60.7613 24.1494 59.953 24.4889 59.1102 24.4889Z" fill="#3F65FF"/>
<path d="M59.1102 39.9556H47.6695C46.8266 39.9556 46.0183 39.6161 45.4223 39.0118C44.8263 38.4075 44.4915 37.5879 44.4915 36.7333C44.4915 35.8787 44.8263 35.0592 45.4223 34.4549C46.0183 33.8506 46.8266 33.5111 47.6695 33.5111H59.1102C59.953 33.5111 60.7613 33.8506 61.3573 34.4549C61.9533 35.0592 62.2881 35.8787 62.2881 36.7333C62.2881 37.5879 61.9533 38.4075 61.3573 39.0118C60.7613 39.6161 59.953 39.9556 59.1102 39.9556Z" fill="#3F65FF"/>
</svg>
