<svg width="20" height="26" viewBox="0 0 20 26" fill="none" xmlns="http://www.w3.org/2000/svg">
<g clip-path="url(#clip0)">
<path d="M15.3333 25.8622H4.66667C3.42935 25.861 2.24305 25.3757 1.36813 24.5128C0.49322 23.6499 0.00117672 22.4799 0 21.2596L0 7.67105C0.00117672 6.45073 0.49322 5.28072 1.36813 4.41783C2.24305 3.55493 3.42935 3.06964 4.66667 3.06848H15.3333C16.5707 3.06964 17.757 3.55493 18.6319 4.41783C19.5068 5.28072 19.9988 6.45073 20 7.67105V21.2596C19.9988 22.4799 19.5068 23.6499 18.6319 24.5128C17.757 25.3757 16.5707 25.861 15.3333 25.8622ZM4.66667 5.26018C4.01872 5.26134 3.39765 5.51571 2.93948 5.96759C2.48131 6.41946 2.2234 7.03201 2.22222 7.67105V21.2596C2.2234 21.8986 2.48131 22.5112 2.93948 22.9631C3.39765 23.4149 4.01872 23.6693 4.66667 23.6705H15.3333C15.9813 23.6693 16.6024 23.4149 17.0605 22.9631C17.5187 22.5112 17.7766 21.8986 17.7778 21.2596V7.67105C17.7766 7.03201 17.5187 6.41946 17.0605 5.96759C16.6024 5.51571 15.9813 5.26134 15.3333 5.26018H4.66667Z" fill="white"/>
<path d="M13.1111 4.16421C13.1111 3.35042 12.7833 2.56997 12.1999 1.99453C11.6164 1.4191 10.8251 1.09583 9.99997 1.09583C9.17485 1.09583 8.38353 1.4191 7.80008 1.99453C7.21663 2.56997 6.88885 3.35042 6.88885 4.16421H13.1111Z" fill="white"/>
<path d="M13.1111 5.26008H6.88888C6.5942 5.26008 6.31158 5.14463 6.10321 4.93911C5.89483 4.7336 5.77777 4.45487 5.77777 4.16423C5.77777 3.05981 6.22261 2.00062 7.01443 1.21967C7.80625 0.43873 8.88019 0 9.99999 0C11.1198 0 12.1937 0.43873 12.9856 1.21967C13.7774 2.00062 14.2222 3.05981 14.2222 4.16423C14.2222 4.30814 14.1935 4.45064 14.1376 4.58359C14.0818 4.71655 14 4.83736 13.8968 4.93911C13.7936 5.04087 13.6711 5.12159 13.5363 5.17666C13.4015 5.23174 13.257 5.26008 13.1111 5.26008ZM8.33777 3.06838H11.6622C11.4794 2.79896 11.2321 2.57812 10.9422 2.4254C10.6523 2.27268 10.3287 2.19279 9.99999 2.19279C9.67131 2.19279 9.34769 2.27268 9.05777 2.4254C8.76785 2.57812 8.52055 2.79896 8.33777 3.06838Z" fill="white"/>
<path d="M10 4.16417C10.6137 4.16417 11.1111 3.67355 11.1111 3.06832C11.1111 2.4631 10.6137 1.97247 10 1.97247C9.38638 1.97247 8.88892 2.4631 8.88892 3.06832C8.88892 3.67355 9.38638 4.16417 10 4.16417Z" fill="white"/>
<path d="M8.82666 18.6601C8.53207 18.6592 8.24959 18.5443 8.04 18.3401L4.99111 15.3419C4.88514 15.2406 4.80068 15.1196 4.74265 14.9858C4.68461 14.852 4.65417 14.7082 4.65311 14.5627C4.65204 14.4172 4.68036 14.2729 4.73642 14.1383C4.79248 14.0038 4.87516 13.8815 4.97963 13.7788C5.08409 13.676 5.20826 13.5948 5.34489 13.5399C5.48151 13.485 5.62786 13.4575 5.77538 13.459C5.92291 13.4604 6.06866 13.4909 6.20413 13.5485C6.33961 13.6061 6.46209 13.6897 6.56444 13.7945L8.82666 16.0257L13.4356 11.4669C13.6442 11.2612 13.9272 11.1456 14.2222 11.1456C14.5173 11.1456 14.8002 11.2612 15.0089 11.4669C15.2175 11.6727 15.3347 11.9518 15.3347 12.2428C15.3347 12.5338 15.2175 12.8129 15.0089 13.0187L9.61333 18.3401C9.40374 18.5443 9.12126 18.6592 8.82666 18.6601Z" fill="white"/>
</g>
<defs>
<clipPath id="clip0">
<rect width="20" height="25.8621" fill="white"/>
</clipPath>
</defs>
</svg>
