<svg width="20" height="20" viewBox="0 0 20 20" fill="none" xmlns="http://www.w3.org/2000/svg">
<g clip-path="url(#clip0)">
<path d="M10 19.7333L9.6339 19.5576C7.90156 18.6561 6.29435 17.5253 4.85424 16.1946C1.69492 13.2796 2.64597e-07 9.88217 2.64597e-07 6.37448C-0.000337068 5.19421 0.321878 4.03705 0.930711 3.03204C1.53954 2.02703 2.41106 1.21368 3.44807 0.68271C4.48507 0.151736 5.6468 -0.0759932 6.80369 0.0249192C7.96058 0.125832 9.06715 0.551419 10 1.25422C10.9328 0.551419 12.0394 0.125832 13.1963 0.0249192C14.3532 -0.0759932 15.5149 0.151736 16.5519 0.68271C17.5889 1.21368 18.4605 2.02703 19.0693 3.03204C19.6781 4.03705 20.0003 5.19421 20 6.37448C20 9.88217 18.3051 13.2658 15.1458 16.2015C13.7052 17.5297 12.0981 18.6582 10.3661 19.5576L10 19.7333ZM6.27119 1.72283C5.05803 1.72465 3.89508 2.21532 3.03726 3.08728C2.17943 3.95924 1.69671 5.14134 1.69492 6.37448C1.69492 12.8179 8.34915 16.8838 10 17.8072C11.6475 16.8838 18.3051 12.8179 18.3051 6.37448C18.3057 5.4651 18.0438 4.57552 17.5519 3.81591C17.06 3.05631 16.3597 2.46005 15.5378 2.10099C14.7158 1.74192 13.8083 1.63582 12.9276 1.79583C12.0469 1.95583 11.2317 2.37492 10.5831 3.00117L10 3.56626L9.41695 3.00117C8.56862 2.18048 7.44232 1.72278 6.27119 1.72283Z" fill="#4F4F4F"/>
</g>
<defs>
<clipPath id="clip0">
<rect width="20" height="19.7333" fill="white"/>
</clipPath>
</defs>
</svg>
