<svg width="20" height="19" viewBox="0 0 20 19" fill="none" xmlns="http://www.w3.org/2000/svg">
<g clip-path="url(#clip0)">
<path d="M5.57625 18.9474C5.42366 18.947 5.27391 18.9068 5.14235 18.831C5.01931 18.7553 4.9182 18.6497 4.84875 18.5246C4.77929 18.3994 4.74382 18.2588 4.74574 18.1164V14.7491C4.74574 14.5287 4.83503 14.3173 4.99395 14.1614C5.15288 14.0056 5.36844 13.918 5.5932 13.918C5.81796 13.918 6.03351 14.0056 6.19244 14.1614C6.35137 14.3173 6.44066 14.5287 6.44066 14.7491V16.7202L11.444 14.061C11.6418 13.9561 11.874 13.9325 12.0895 13.9955C12.305 14.0584 12.4862 14.2027 12.5932 14.3967C12.7002 14.5907 12.7242 14.8183 12.66 15.0297C12.5958 15.241 12.4486 15.4187 12.2508 15.5236L5.99659 18.8477C5.86763 18.916 5.7228 18.9504 5.57625 18.9474Z" fill="#4F4F4F"/>
<path d="M13.7288 15.6233H11.8305C11.6058 15.6233 11.3902 15.5357 11.2313 15.3799C11.0723 15.224 10.9831 15.0126 10.9831 14.7922C10.9831 14.5718 11.0723 14.3605 11.2313 14.2046C11.3902 14.0488 11.6058 13.9612 11.8305 13.9612H13.7288C14.942 13.9595 16.1049 13.4861 16.9627 12.6449C17.8206 11.8037 18.3033 10.6633 18.3051 9.47368V6.14958C18.3033 4.95996 17.8206 3.81956 16.9627 2.97836C16.1049 2.13717 14.942 1.66381 13.7288 1.66205H6.27119C5.05804 1.66381 3.89509 2.13717 3.03726 2.97836C2.17943 3.81956 1.69671 4.95996 1.69492 6.14958V9.47368C1.69626 10.5639 2.1017 11.6165 2.83572 12.4354C3.56975 13.2542 4.5823 13.7835 5.68475 13.9247C5.90951 13.9529 6.11363 14.0675 6.25222 14.2433C6.39081 14.4191 6.4525 14.6416 6.42373 14.8621C6.39496 15.0825 6.27809 15.2826 6.09881 15.4185C5.91954 15.5544 5.69256 15.6149 5.4678 15.5867C3.95471 15.3929 2.5653 14.6656 1.55909 13.5406C0.552878 12.4157 -0.00132183 10.97 2.36752e-06 9.47368V6.14958C0.00179694 4.51915 0.663086 2.956 1.83877 1.80312C3.01446 0.650226 4.60852 0.00175978 6.27119 0L13.7288 0C15.3915 0.00175978 16.9855 0.650226 18.1612 1.80312C19.3369 2.956 19.9982 4.51915 20 6.14958V9.47368C19.9982 11.1041 19.3369 12.6673 18.1612 13.8202C16.9855 14.973 15.3915 15.6215 13.7288 15.6233Z" fill="#4F4F4F"/>
<path d="M9.99998 9.21106C9.77522 9.21106 9.55967 9.12351 9.40074 8.96766C9.24181 8.81182 9.15253 8.60044 9.15253 8.38004V4.48752C9.15253 4.26712 9.24181 4.05574 9.40074 3.8999C9.55967 3.74405 9.77522 3.65649 9.99998 3.65649C10.2247 3.65649 10.4403 3.74405 10.5992 3.8999C10.7582 4.05574 10.8474 4.26712 10.8474 4.48752V8.38004C10.8474 8.60044 10.7582 8.81182 10.5992 8.96766C10.4403 9.12351 10.2247 9.21106 9.99998 9.21106Z" fill="#4F4F4F"/>
<path d="M9.99998 11.9667C9.77522 11.9667 9.55967 11.8792 9.40074 11.7233C9.24181 11.5675 9.15253 11.3561 9.15253 11.1357V10.8033C9.15253 10.5829 9.24181 10.3715 9.40074 10.2157C9.55967 10.0598 9.77522 9.97229 9.99998 9.97229C10.2247 9.97229 10.4403 10.0598 10.5992 10.2157C10.7582 10.3715 10.8474 10.5829 10.8474 10.8033V11.1357C10.8474 11.3561 10.7582 11.5675 10.5992 11.7233C10.4403 11.8792 10.2247 11.9667 9.99998 11.9667Z" fill="#4F4F4F"/>
</g>
<defs>
<clipPath id="clip0">
<rect width="20" height="18.9474" fill="white"/>
</clipPath>
</defs>
</svg>
