<svg width="20" height="21" viewBox="0 0 20 21" fill="none" xmlns="http://www.w3.org/2000/svg">
<g clip-path="url(#clip0)">
<path d="M10 20.2667C8.02219 20.2667 6.08879 19.6724 4.4443 18.5589C2.79981 17.4454 1.51809 15.8628 0.761209 14.0112C0.00433283 12.1596 -0.193701 10.1221 0.192152 8.15642C0.578004 6.19075 1.53041 4.38516 2.92894 2.96799C4.32746 1.55082 6.10929 0.585711 8.0491 0.194714C9.98891 -0.196283 11.9996 0.0043906 13.8268 0.771359C15.6541 1.53833 17.2159 2.83714 18.3147 4.50356C19.4135 6.16998 20 8.12915 20 10.1333C19.9973 12.82 18.9429 15.3959 17.0681 17.2957C15.1933 19.1955 12.6513 20.2639 10 20.2667ZM10 1.71752C8.35741 1.71752 6.75171 2.2111 5.38595 3.13584C4.02018 4.06058 2.9557 5.37495 2.32711 6.91274C1.69851 8.45053 1.53405 10.1427 1.8545 11.7752C2.17495 13.4077 2.96594 14.9072 4.12742 16.0842C5.28891 17.2612 6.76873 18.0627 8.37976 18.3875C9.99079 18.7122 11.6607 18.5455 13.1782 17.9085C14.6958 17.2716 15.9929 16.1929 16.9054 14.8089C17.818 13.4249 18.3051 11.7978 18.3051 10.1333C18.3024 7.90216 17.4265 5.76315 15.8696 4.18547C14.3127 2.60779 12.2018 1.72025 10 1.71752Z" fill="#4F4F4F"/>
<path d="M9.74571 12.9225C9.52095 12.9225 9.3054 12.8321 9.14647 12.671C8.98754 12.51 8.89825 12.2915 8.89825 12.0638C8.8963 11.421 9.09819 10.7947 9.47414 10.2771C9.8501 9.75941 10.3802 9.37785 10.9864 9.18865C11.2476 9.10802 11.4761 8.94411 11.6379 8.72131C11.7998 8.4985 11.8863 8.2287 11.8847 7.95204C11.8847 7.44551 11.6861 6.95972 11.3327 6.60155C10.9792 6.24338 10.4998 6.04216 9.99995 6.04216C9.50008 6.04216 9.02069 6.24338 8.66723 6.60155C8.31377 6.95972 8.1152 7.44551 8.1152 7.95204C8.1152 8.17979 8.02592 8.39822 7.86699 8.55927C7.70806 8.72032 7.49251 8.81079 7.26775 8.81079C7.04299 8.81079 6.82743 8.72032 6.6685 8.55927C6.50957 8.39822 6.42029 8.17979 6.42029 7.95204C6.42029 6.98999 6.79743 6.06735 7.46875 5.38708C8.14006 4.70682 9.05056 4.32465 9.99995 4.32465C10.9493 4.32465 11.8598 4.70682 12.5312 5.38708C13.2025 6.06735 13.5796 6.98999 13.5796 7.95204C13.5816 8.59476 13.3797 9.22111 13.0037 9.73876C12.6278 10.2564 12.0976 10.638 11.4915 10.8272C11.2306 10.9083 11.0024 11.0723 10.8406 11.295C10.6788 11.5177 10.5921 11.7872 10.5932 12.0638C10.5932 12.1765 10.5712 12.2882 10.5287 12.3924C10.4861 12.4966 10.4236 12.5913 10.345 12.671C10.2663 12.7507 10.1728 12.814 10.07 12.8572C9.9672 12.9003 9.857 12.9225 9.74571 12.9225Z" fill="#4F4F4F"/>
<path d="M9.74919 15.7702C10.3108 15.7702 10.7661 15.3088 10.7661 14.7397C10.7661 14.1705 10.3108 13.7092 9.74919 13.7092C9.18754 13.7092 8.73224 14.1705 8.73224 14.7397C8.73224 15.3088 9.18754 15.7702 9.74919 15.7702Z" fill="#4F4F4F"/>
</g>
<defs>
<clipPath id="clip0">
<rect width="20" height="20.2667" fill="white"/>
</clipPath>
</defs>
</svg>
