<svg width="20" height="18" viewBox="0 0 20 18" fill="none" xmlns="http://www.w3.org/2000/svg">
<g clip-path="url(#clip0)">
<path d="M11.3899 17.0667C9.5919 17.071 7.83848 16.5126 6.37969 15.4712C6.28385 15.4092 6.20165 15.3287 6.13807 15.2344C6.07448 15.1402 6.03082 15.0341 6.00972 14.9227C5.98861 14.8113 5.9905 14.6967 6.01527 14.586C6.04004 14.4754 6.08717 14.3708 6.15383 14.2786C6.22049 14.1865 6.3053 14.1086 6.40313 14.0498C6.50097 13.991 6.60981 13.9525 6.72309 13.9365C6.83637 13.9205 6.95175 13.9274 7.06227 13.9568C7.17278 13.9862 7.27615 14.0374 7.36613 14.1075C8.69098 15.0529 10.3107 15.5034 11.9385 15.3791C13.5664 15.2549 15.0974 14.5639 16.2605 13.4286C17.4236 12.2933 18.1438 10.7868 18.2935 9.17582C18.4433 7.56487 18.0131 5.95335 17.0789 4.62655C16.1447 3.29975 14.7669 2.34325 13.1894 1.92637C11.6119 1.5095 9.93635 1.65914 8.45947 2.3488C6.98259 3.03846 5.7996 4.22367 5.11992 5.6946C4.44024 7.16553 4.30771 8.82731 4.74579 10.3858C4.77584 10.4921 4.78446 10.6032 4.77117 10.7128C4.75787 10.8224 4.72292 10.9284 4.66831 11.0246C4.6137 11.1208 4.54049 11.2054 4.45287 11.2736C4.36525 11.3418 4.26494 11.3922 4.15766 11.422C4.05037 11.4518 3.93822 11.4603 3.82761 11.4471C3.71699 11.434 3.61008 11.3993 3.51297 11.3452C3.31685 11.2359 3.17258 11.0539 3.11189 10.8392C2.62395 9.1175 2.69411 7.2874 3.31248 5.60732C3.93085 3.92724 5.06618 2.48207 6.55818 1.47585C8.05017 0.469637 9.82345 -0.046785 11.6276 -0.000496009C13.4318 0.045793 15.1757 0.652454 16.6132 1.73383C18.0506 2.8152 19.1089 4.31666 19.6387 6.0262C20.1685 7.73573 20.143 9.56698 19.5658 11.2614C18.9886 12.9558 17.8888 14.4277 16.4218 15.4694C14.9548 16.511 13.1946 17.0697 11.3899 17.0667Z" fill="#3F65FF"/>
<path d="M13.6305 12.1492C13.4864 12.1483 13.345 12.1101 13.2204 12.0384L10.9661 10.7486C10.8373 10.6753 10.7303 10.5696 10.6559 10.4422C10.5815 10.3148 10.5423 10.1702 10.5424 10.023V5.75385C10.5424 5.53114 10.6317 5.31755 10.7906 5.16007C10.9495 5.00259 11.1651 4.91412 11.3898 4.91412C11.6146 4.91412 11.8302 5.00259 11.9891 5.16007C12.148 5.31755 12.2373 5.53114 12.2373 5.75385V9.54272L14.0543 10.584C14.215 10.6768 14.3404 10.8194 14.4112 10.9898C14.482 11.1603 14.4943 11.349 14.4461 11.5271C14.3979 11.7051 14.2919 11.8625 14.1446 11.9749C13.9972 12.0873 13.8165 12.1486 13.6305 12.1492Z" fill="#3F65FF"/>
<path d="M3.91187 11.5547C3.68703 11.5548 3.47132 11.4666 3.31187 11.3095L0.261026 8.28651C0.180204 8.20893 0.115782 8.11618 0.07152 8.01367C0.027258 7.91116 0.00404197 7.80094 0.0032266 7.68944C0.00241122 7.57795 0.0240128 7.46741 0.0667709 7.36427C0.109529 7.26114 0.172587 7.16747 0.252267 7.08874C0.331947 7.01001 0.426652 6.94779 0.530857 6.90572C0.635062 6.86364 0.746681 6.84255 0.8592 6.84367C0.971719 6.84479 1.08289 6.86811 1.18621 6.91226C1.28954 6.95641 1.38296 7.0205 1.46103 7.10081L3.92543 9.54274L6.39323 7.10081C6.55468 6.9578 6.76526 6.88146 6.98173 6.88747C7.1982 6.89347 7.40414 6.98136 7.55726 7.13309C7.71039 7.28482 7.79909 7.48888 7.80515 7.70338C7.8112 7.91787 7.73416 8.12653 7.58984 8.28651L4.53899 11.3263C4.45565 11.4047 4.35705 11.4654 4.24921 11.5046C4.14138 11.5439 4.02659 11.561 3.91187 11.5547Z" fill="#3F65FF"/>
</g>
<defs>
<clipPath id="clip0">
<rect width="20" height="17.0667" fill="white"/>
</clipPath>
</defs>
</svg>
