<svg width="20" height="21" viewBox="0 0 20 21" fill="none" xmlns="http://www.w3.org/2000/svg">
<path d="M15.8207 7.14482H10.377C10.1514 7.14482 9.93507 7.05521 9.77556 6.8957C9.61604 6.73618 9.52643 6.51984 9.52643 6.29425V0.850574C9.52643 0.624988 9.61604 0.408641 9.77556 0.249127C9.93507 0.0896138 10.1514 7.79956e-09 10.377 7.79956e-09C10.6026 7.79956e-09 10.8189 0.0896138 10.9785 0.249127C11.138 0.408641 11.2276 0.624988 11.2276 0.850574V5.44368H15.8207C16.0463 5.44368 16.2626 5.53329 16.4221 5.6928C16.5816 5.85232 16.6713 6.06866 16.6713 6.29425C16.6713 6.51984 16.5816 6.73618 16.4221 6.8957C16.2626 7.05521 16.0463 7.14482 15.8207 7.14482Z" fill="#4F4F4F"/>
<path d="M10.1218 20.0736H3.57241C2.62523 20.0727 1.71709 19.696 1.04733 19.0262C0.377568 18.3565 0.000900796 17.4483 0 16.5011V3.57241C0.000900796 2.62523 0.377568 1.71709 1.04733 1.04733C1.71709 0.377568 2.62523 0.000900804 3.57241 7.79956e-09H11.7379C11.9636 -3.047e-05 12.1801 0.0892626 12.3401 0.248368L16.4229 4.33112C16.582 4.49116 16.6713 4.70766 16.6713 4.93333V8.67586C16.6713 8.90144 16.5816 9.11779 16.4221 9.2773C16.2626 9.43682 16.0463 9.52643 15.8207 9.52643C15.5951 9.52643 15.3787 9.43682 15.2192 9.2773C15.0597 9.11779 14.9701 8.90144 14.9701 8.67586V5.27356L11.3841 1.70115H3.5588C3.06515 1.70563 2.59319 1.90465 2.24539 2.25499C1.89759 2.60534 1.70202 3.07874 1.70115 3.57241V16.5011C1.70205 16.9972 1.89949 17.4726 2.25022 17.8233C2.60096 18.1741 3.0764 18.3715 3.57241 18.3724H10.1218C10.3474 18.3724 10.5638 18.462 10.7233 18.6215C10.8828 18.781 10.9724 18.9974 10.9724 19.223C10.9724 19.4486 10.8828 19.6649 10.7233 19.8244C10.5638 19.9839 10.3474 20.0736 10.1218 20.0736Z" fill="#4F4F4F"/>
<path d="M8.71669 11.4555H3.91264C3.68706 11.4555 3.47071 11.3659 3.31119 11.2064C3.15168 11.0469 3.06207 10.8305 3.06207 10.605C3.06207 10.3794 3.15168 10.163 3.31119 10.0035C3.47071 9.844 3.68706 9.75439 3.91264 9.75439H8.71669C8.94227 9.75439 9.15862 9.844 9.31813 10.0035C9.47764 10.163 9.56726 10.3794 9.56726 10.605C9.56726 10.8305 9.47764 11.0469 9.31813 11.2064C9.15862 11.3659 8.94227 11.4555 8.71669 11.4555Z" fill="#4F4F4F"/>
<path d="M7.31494 15.7628H3.91264C3.68706 15.7628 3.47071 15.6732 3.31119 15.5137C3.15168 15.3542 3.06207 15.1379 3.06207 14.9123C3.06207 14.6867 3.15168 14.4703 3.31119 14.3108C3.47071 14.1513 3.68706 14.0617 3.91264 14.0617H7.31494C7.54052 14.0617 7.75687 14.1513 7.91639 14.3108C8.0759 14.4703 8.16551 14.6867 8.16551 14.9123C8.16551 15.1379 8.0759 15.3542 7.91639 15.5137C7.75687 15.6732 7.54052 15.7628 7.31494 15.7628Z" fill="#4F4F4F"/>
<path d="M15.7458 18.1921C13.9698 18.1921 12.5307 16.8312 11.8332 15.9976C11.6128 15.7409 11.4917 15.4139 11.4917 15.0756C11.4917 14.7373 11.6128 14.4102 11.8332 14.1536C12.5136 13.3336 13.9698 11.9591 15.7458 11.9591C17.5218 11.9591 18.9576 13.32 19.6585 14.1536C19.8788 14.4102 20 14.7373 20 15.0756C20 15.4139 19.8788 15.7409 19.6585 15.9976C18.9576 16.8176 17.5218 18.1921 15.7458 18.1921ZM13.2894 15.0756C13.7759 15.6097 14.7387 16.4909 15.7458 16.4909C16.7529 16.4909 17.7124 15.6097 18.2023 15.0756C17.7124 14.5414 16.7529 13.6602 15.7458 13.6602C14.7387 13.6602 13.7759 14.5414 13.2894 15.0756Z" fill="#4F4F4F"/>
<path d="M15.7458 16.2664C16.4035 16.2664 16.9366 15.7332 16.9366 15.0756C16.9366 14.4179 16.4035 13.8848 15.7458 13.8848C15.0882 13.8848 14.555 14.4179 14.555 15.0756C14.555 15.7332 15.0882 16.2664 15.7458 16.2664Z" fill="#4F4F4F"/>
</svg>
