<svg width="20" height="23" viewBox="0 0 20 23" fill="none" xmlns="http://www.w3.org/2000/svg">
<g clip-path="url(#clip0)">
<path d="M15.9615 22.7273H4.03846C2.96771 22.7263 1.9411 22.2998 1.18396 21.5415C0.426825 20.7832 0.00101831 19.755 0 18.6826L0 15.2157C0 14.9603 0.101305 14.7154 0.281628 14.5348C0.461952 14.3542 0.706523 14.2527 0.961538 14.2527C1.21655 14.2527 1.46113 14.3542 1.64145 14.5348C1.82177 14.7154 1.92308 14.9603 1.92308 15.2157V18.6826C1.92409 19.2442 2.14729 19.7825 2.54378 20.1796C2.94027 20.5767 3.47774 20.8002 4.03846 20.8012H15.9615C16.5223 20.8002 17.0597 20.5767 17.4562 20.1796C17.8527 19.7825 18.0759 19.2442 18.0769 18.6826V4.04468C18.0759 3.4831 17.8527 2.9448 17.4562 2.5477C17.0597 2.1506 16.5223 1.92706 15.9615 1.92604H4.03846C3.47774 1.92706 2.94027 2.1506 2.54378 2.5477C2.14729 2.9448 1.92409 3.4831 1.92308 4.04468V7.51156C1.92308 7.76696 1.82177 8.01191 1.64145 8.19251C1.46113 8.37312 1.21655 8.47458 0.961538 8.47458C0.706523 8.47458 0.461952 8.37312 0.281628 8.19251C0.101305 8.01191 0 7.76696 0 7.51156L0 4.04468C0.00101831 2.97228 0.426825 1.94409 1.18396 1.18579C1.9411 0.427482 2.96771 0.00101988 4.03846 0L15.9615 0C17.0323 0.00101988 18.0589 0.427482 18.816 1.18579C19.5732 1.94409 19.999 2.97228 20 4.04468V18.6826C19.999 19.755 19.5732 20.7832 18.816 21.5415C18.0589 22.2998 17.0323 22.7263 15.9615 22.7273Z" fill="#4F4F4F"/>
<path d="M13.4615 12.3267H0.961538C0.706523 12.3267 0.461952 12.2252 0.281628 12.0446C0.101305 11.864 0 11.6191 0 11.3637C0 11.1082 0.101305 10.8633 0.281628 10.6827C0.461952 10.5021 0.706523 10.4006 0.961538 10.4006H13.4615C13.7166 10.4006 13.9611 10.5021 14.1414 10.6827C14.3218 10.8633 14.4231 11.1082 14.4231 11.3637C14.4231 11.6191 14.3218 11.864 14.1414 12.0446C13.9611 12.2252 13.7166 12.3267 13.4615 12.3267Z" fill="#4F4F4F"/>
<path d="M8.84618 16.9492C8.71979 16.9496 8.59457 16.925 8.47773 16.8767C8.36089 16.8285 8.25474 16.7575 8.16541 16.668C7.98643 16.4863 7.88608 16.2414 7.88608 15.9861C7.88608 15.7309 7.98643 15.486 8.16541 15.3043L12.1 11.3636L8.16541 7.42297C7.98486 7.24214 7.88342 6.99688 7.88342 6.74115C7.88342 6.48542 7.98486 6.24016 8.16541 6.05933C8.34596 5.87851 8.59084 5.77692 8.84618 5.77692C9.10151 5.77692 9.34639 5.87851 9.52695 6.05933L14.1423 10.6818C14.3213 10.8635 14.4217 11.1084 14.4217 11.3636C14.4217 11.6189 14.3213 11.8638 14.1423 12.0455L9.52695 16.668C9.43761 16.7575 9.33147 16.8285 9.21463 16.8767C9.09779 16.925 8.97256 16.9496 8.84618 16.9492Z" fill="#4F4F4F"/>
</g>
<defs>
<clipPath id="clip0">
<rect width="20" height="22.7273" fill="white"/>
</clipPath>
</defs>
</svg>
