<svg width="20" height="17" viewBox="0 0 20 17" fill="none" xmlns="http://www.w3.org/2000/svg">
<path d="M16.4407 17H3.55932C2.61561 16.9991 1.7108 16.6301 1.04349 15.9739C0.376185 15.3177 0.000897495 14.428 0 13.5L0 3.5C0.000897495 2.57201 0.376185 1.68229 1.04349 1.0261C1.7108 0.369915 2.61561 0.000882537 3.55932 0L16.4407 0C17.3844 0.000882537 18.2892 0.369915 18.9565 1.0261C19.6238 1.68229 19.9991 2.57201 20 3.5V13.5C19.9991 14.428 19.6238 15.3177 18.9565 15.9739C18.2892 16.6301 17.3844 16.9991 16.4407 17ZM3.55932 1.66667C3.06513 1.66755 2.59143 1.86099 2.24198 2.20461C1.89253 2.54824 1.69581 3.01404 1.69492 3.5V13.5C1.69581 13.986 1.89253 14.4518 2.24198 14.7954C2.59143 15.139 3.06513 15.3325 3.55932 15.3333H16.4407C16.9349 15.3325 17.4086 15.139 17.758 14.7954C18.1075 14.4518 18.3042 13.986 18.3051 13.5V3.5C18.3042 3.01404 18.1075 2.54824 17.758 2.20461C17.4086 1.86099 16.9349 1.66755 16.4407 1.66667H3.55932Z" fill="#3F65FF"/>
<path d="M10 9.50333C9.38863 9.50507 8.78721 9.35119 8.25423 9.05666L0.481352 4.76C0.285361 4.65126 0.141326 4.47041 0.0809334 4.25725C0.0205403 4.04408 0.048736 3.81605 0.159318 3.62333C0.2699 3.43061 0.453809 3.28897 0.670588 3.22958C0.887368 3.1702 1.11926 3.19792 1.31525 3.30666L9.08474 7.60666C9.36431 7.759 9.67868 7.83893 9.9983 7.83893C10.3179 7.83893 10.6323 7.759 10.9119 7.60666L18.6847 3.30666C18.7818 3.25282 18.8887 3.2183 18.9993 3.20508C19.1099 3.19185 19.2221 3.20018 19.3294 3.22958C19.4367 3.25899 19.5371 3.3089 19.6249 3.37646C19.7126 3.44401 19.7859 3.5279 19.8407 3.62333C19.8954 3.71876 19.9305 3.82385 19.944 3.93262C19.9574 4.04139 19.949 4.1517 19.9191 4.25725C19.8892 4.3628 19.8384 4.46152 19.7697 4.54778C19.701 4.63404 19.6157 4.70615 19.5186 4.76L11.7458 9.05666C11.2128 9.35119 10.6114 9.50507 10 9.50333Z" fill="#3F65FF"/>
</svg>
