<svg width="20" height="13" viewBox="0 0 20 13" fill="none" xmlns="http://www.w3.org/2000/svg">
<g clip-path="url(#clip0)">
<path d="M19.1525 7.01992H0.847458C0.622698 7.01992 0.407144 6.93187 0.248215 6.77515C0.0892855 6.61842 0 6.40586 0 6.18422C0 5.96257 0.0892855 5.75001 0.248215 5.59328C0.407144 5.43656 0.622698 5.34851 0.847458 5.34851H19.1525C19.3773 5.34851 19.5929 5.43656 19.7518 5.59328C19.9107 5.75001 20 5.96257 20 6.18422C20 6.40586 19.9107 6.61842 19.7518 6.77515C19.5929 6.93187 19.3773 7.01992 19.1525 7.01992Z" fill="#4F4F4F"/>
<path d="M19.1525 12.3684H0.847458C0.622698 12.3684 0.407144 12.2803 0.248215 12.1236C0.0892855 11.9669 0 11.7543 0 11.5327C0 11.311 0.0892855 11.0985 0.248215 10.9417C0.407144 10.785 0.622698 10.697 0.847458 10.697H19.1525C19.3773 10.697 19.5929 10.785 19.7518 10.9417C19.9107 11.0985 20 11.311 20 11.5327C20 11.7543 19.9107 11.9669 19.7518 12.1236C19.5929 12.2803 19.3773 12.3684 19.1525 12.3684Z" fill="#4F4F4F"/>
<path d="M19.1525 1.67141H0.847458C0.622698 1.67141 0.407144 1.58336 0.248215 1.42664C0.0892855 1.26991 0 1.05735 0 0.835704C0 0.614062 0.0892855 0.401497 0.248215 0.244772C0.407144 0.0880471 0.622698 0 0.847458 0L19.1525 0C19.3773 0 19.5929 0.0880471 19.7518 0.244772C19.9107 0.401497 20 0.614062 20 0.835704C20 1.05735 19.9107 1.26991 19.7518 1.42664C19.5929 1.58336 19.3773 1.67141 19.1525 1.67141Z" fill="#4F4F4F"/>
</g>
<defs>
<clipPath id="clip0">
<rect width="20" height="12.3684" fill="white"/>
</clipPath>
</defs>
</svg>
