<svg width="111" height="55" viewBox="0 0 111 55" fill="none" xmlns="http://www.w3.org/2000/svg">
<g filter="url(#filter0_d)">
<rect x="4" y="2" width="102.606" height="47" rx="2.64789" fill="white"/>
<path d="M36.9607 7.8853H37.5538L38.6342 10.0936L39.7092 7.8853H40.3023V11.2958H39.7304V8.82265L38.8089 10.7079H38.4594L37.5326 8.82265V11.2958H36.9607V7.8853ZM42.4251 11.3487C41.952 11.3487 41.5866 11.2358 41.3288 11.0098C41.0711 10.7839 40.9422 10.4573 40.9422 10.0301V7.8853H41.5195V10.0089C41.5195 10.2913 41.5972 10.5049 41.7525 10.6497C41.9078 10.7909 42.132 10.8615 42.4251 10.8615C42.7146 10.8615 42.937 10.7909 43.0923 10.6497C43.2477 10.5049 43.3253 10.2913 43.3253 10.0089V7.8853H43.8973V10.0301C43.8973 10.4573 43.7684 10.7839 43.5107 11.0098C43.2565 11.2358 42.8946 11.3487 42.4251 11.3487ZM44.5372 7.8853H45.0456L46.8249 10.3955V7.8853H47.3969V11.2958H46.8885L45.1144 8.79087V11.2958H44.5372V7.8853ZM48.0694 7.8853H48.6466V11.2958H48.0694V7.8853ZM50.9151 11.3487C50.3643 11.3487 49.9424 11.1987 49.6494 10.8986C49.3564 10.595 49.2099 10.1766 49.2099 9.64349C49.2099 9.06802 49.3511 8.62318 49.6335 8.30896C49.916 7.99121 50.3414 7.83234 50.9098 7.83234C51.2664 7.83234 51.6 7.88706 51.9107 7.99651V8.49961C51.6106 8.3831 51.2911 8.32485 50.9522 8.32485C50.5391 8.32485 50.2425 8.43429 50.0625 8.65318C49.8824 8.87208 49.7924 9.20218 49.7924 9.64349C49.7924 10.046 49.8877 10.3496 50.0784 10.5544C50.2725 10.7591 50.5673 10.8615 50.9628 10.8615C51.3123 10.8615 51.63 10.8068 51.916 10.6974V11.2057C51.6124 11.3011 51.2787 11.3487 50.9151 11.3487ZM52.9099 6.71493H53.4183L52.9735 7.65228H52.5127L52.9099 6.71493ZM52.4757 7.8853H53.0529V11.2958H52.4757V7.8853ZM53.7272 7.8853H55.2471C55.6248 7.8853 55.9091 7.98945 56.0997 8.19775C56.2939 8.40605 56.391 8.68143 56.391 9.02389C56.391 9.36282 56.2851 9.63467 56.0732 9.83944C55.8649 10.0442 55.5825 10.1466 55.2259 10.1466H54.3044V11.2958H53.7272V7.8853ZM55.12 9.69116C55.3424 9.69116 55.5136 9.6329 55.6337 9.5164C55.7537 9.39636 55.8137 9.23219 55.8137 9.02389C55.8137 8.805 55.7572 8.63553 55.6443 8.51549C55.5313 8.39546 55.3654 8.33544 55.1465 8.33544H54.3044V9.69116H55.12ZM56.8509 7.8853H57.4281V11.2958H56.8509V7.8853ZM59.6065 11.3487C59.0628 11.3487 58.6568 11.2075 58.3885 10.9251C58.1237 10.6391 57.9913 10.1978 57.9913 9.60113C57.9913 8.98682 58.1237 8.53844 58.3885 8.256C58.6533 7.97356 59.0593 7.83234 59.6065 7.83234C60.1538 7.83234 60.5598 7.97356 60.8246 8.256C61.0894 8.53844 61.2217 8.98682 61.2217 9.60113C61.2217 10.1978 61.0876 10.6391 60.8193 10.9251C60.5545 11.2075 60.1502 11.3487 59.6065 11.3487ZM59.6065 10.8615C59.9666 10.8615 60.2297 10.7627 60.3956 10.565C60.5615 10.3673 60.6445 10.046 60.6445 9.60113C60.6445 9.13863 60.5615 8.81029 60.3956 8.61611C60.2332 8.42194 59.9702 8.32485 59.6065 8.32485C59.2464 8.32485 58.9834 8.42194 58.8175 8.61611C58.6551 8.81029 58.5739 9.13863 58.5739 9.60113C58.5739 10.0424 58.6568 10.3637 58.8228 10.565C58.9887 10.7627 59.25 10.8615 59.6065 10.8615ZM63.6439 9.64349H65.6669V10.0936H63.6439V9.64349ZM69.6435 11.3487C69.1704 11.3487 68.805 11.2358 68.5473 11.0098C68.2895 10.7839 68.1607 10.4573 68.1607 10.0301V7.8853H68.7379V10.0089C68.7379 10.2913 68.8156 10.5049 68.9709 10.6497C69.1263 10.7909 69.3504 10.8615 69.6435 10.8615C69.933 10.8615 70.1554 10.7909 70.3107 10.6497C70.4661 10.5049 70.5438 10.2913 70.5438 10.0089V7.8853H71.1157V10.0301C71.1157 10.4573 70.9868 10.7839 70.7291 11.0098C70.4749 11.2358 70.113 11.3487 69.6435 11.3487ZM71.7556 7.8853H74.0751V8.33544H72.3328V9.36811H73.8792V9.81296H72.3328V11.2958H71.7556V7.8853Z" fill="black"/>
<path d="M19.3558 23.2615H21.294L25.1705 33.4929H23.3912L22.3744 30.8556H18.2596L17.2428 33.4929H15.4475L19.3558 23.2615ZM22.0884 29.5211L20.309 24.8343L18.5296 29.5211H22.0884ZM26.8736 23.2615H31.8304C32.826 23.2615 33.5727 23.4998 34.0705 23.9764C34.5683 24.4424 34.8172 25.115 34.8172 25.9941C34.8172 26.5343 34.706 26.995 34.4836 27.3763C34.2718 27.747 33.9752 28.033 33.5939 28.2342C34.1129 28.3825 34.5101 28.642 34.7855 29.0127C35.0714 29.3728 35.2144 29.8812 35.2144 30.5379C35.2144 31.5229 34.9443 32.2643 34.4042 32.7621C33.8746 33.2493 33.0908 33.4929 32.0529 33.4929H26.8736V23.2615ZM31.5921 27.6305C32.6725 27.6305 33.2126 27.1327 33.2126 26.1371C33.2126 25.5863 33.0802 25.1891 32.8154 24.9455C32.5507 24.6913 32.0793 24.5642 31.4015 24.5642H28.6053V27.6305H31.5921ZM31.6874 32.2219C32.3123 32.2219 32.7625 32.0895 33.0379 31.8248C33.3238 31.56 33.4668 31.1098 33.4668 30.4743C33.4668 29.9342 33.3185 29.537 33.022 29.2828C32.736 29.0286 32.2329 28.9015 31.5127 28.9015H28.6053V32.2219H31.6874ZM41.4615 33.6518C39.8092 33.6518 38.5435 33.2017 37.6644 32.3014C36.7853 31.3905 36.3458 30.1354 36.3458 28.5361C36.3458 26.8097 36.7694 25.4751 37.6168 24.5325C38.4641 23.5792 39.7404 23.1026 41.4456 23.1026C42.5154 23.1026 43.5163 23.2668 44.4483 23.5951V25.1044C43.548 24.7549 42.5895 24.5801 41.5727 24.5801C40.3335 24.5801 39.4438 24.9085 38.9036 25.5651C38.3635 26.2218 38.0934 27.2121 38.0934 28.5361C38.0934 29.7435 38.3794 30.6544 38.9513 31.2687C39.5338 31.883 40.4182 32.1902 41.6045 32.1902C42.6531 32.1902 43.6063 32.026 44.4642 31.6977V33.2228C43.5533 33.5088 42.5524 33.6518 41.4615 33.6518ZM51.7056 28.5361H57.7746V29.8865H51.7056V28.5361ZM69.5135 33.7789C67.946 33.7789 66.8021 33.3288 66.0819 32.4285C65.3723 31.5282 65.0174 30.2201 65.0174 28.5043C65.0174 26.7249 65.367 25.3798 66.066 24.4689C66.765 23.558 67.9142 23.1026 69.5135 23.1026C71.1023 23.1026 72.2462 23.558 72.9452 24.4689C73.6443 25.3798 73.9938 26.7249 73.9938 28.5043C73.9938 30.2201 73.6337 31.5282 72.9134 32.4285C72.2038 33.3288 71.0705 33.7789 69.5135 33.7789ZM69.5135 32.3014C70.488 32.3014 71.187 31.9783 71.6107 31.3322C72.0343 30.6862 72.2462 29.7435 72.2462 28.5043C72.2462 27.1804 72.0396 26.1953 71.6266 25.5493C71.2135 24.9032 70.5092 24.5801 69.5135 24.5801C68.5074 24.5801 67.7977 24.9032 67.3846 25.5493C66.9716 26.1953 66.765 27.1804 66.765 28.5043C66.765 29.7541 66.9769 30.702 67.4005 31.3481C67.8242 31.9836 68.5285 32.3014 69.5135 32.3014ZM77.0182 24.7867L75.3659 25.0726V23.6269L78.734 23.1026V33.4929H77.0182V24.7867ZM80.4393 32.635C80.6935 32.0525 81.043 31.5123 81.4879 31.0145C81.9327 30.5061 82.4941 29.9606 83.1719 29.3781C83.818 28.8168 84.2787 28.3984 84.5541 28.123C84.8295 27.837 85.0254 27.5564 85.142 27.281C85.2585 27.0056 85.3167 26.6667 85.3167 26.2642C85.3167 25.7028 85.1525 25.2845 84.8242 25.0091C84.4959 24.7231 83.9716 24.5801 83.2514 24.5801C82.4782 24.5801 81.6679 24.739 80.8206 25.0568V23.5316C81.2019 23.4045 81.6414 23.3038 82.1392 23.2297C82.6476 23.145 83.1296 23.1026 83.585 23.1026C84.7077 23.1026 85.5656 23.3833 86.1587 23.9446C86.7519 24.4954 87.0484 25.2633 87.0484 26.2483C87.0484 26.9156 86.8843 27.4928 86.5559 27.98C86.2382 28.4672 85.7404 29.018 85.0625 29.6323L84.7924 29.8706C84.1993 30.3896 83.7439 30.808 83.4261 31.1257C83.119 31.4329 82.8595 31.7771 82.6476 32.1584H87.1596V33.4929H80.4393V32.635ZM91.43 33.6518C90.9534 33.6518 90.4291 33.6041 89.8571 33.5088C89.2958 33.4241 88.8509 33.3182 88.5226 33.1911V31.6818C89.317 32.0101 90.2067 32.1743 91.1917 32.1743C92.039 32.1743 92.6586 32.0525 93.0505 31.8089C93.4424 31.5547 93.6383 31.1257 93.6383 30.522C93.6383 29.484 92.934 28.965 91.5253 28.965H89.9842L90.1272 27.6782H91.4141C92.7592 27.6782 93.4318 27.1486 93.4318 26.0894C93.4318 25.5704 93.2517 25.1891 92.8916 24.9455C92.5315 24.7019 91.9649 24.5801 91.1917 24.5801C90.768 24.5801 90.3338 24.6225 89.8889 24.7072C89.4547 24.792 89.0628 24.9085 88.7132 25.0568V23.5792C89.0522 23.4415 89.4758 23.3303 89.9842 23.2456C90.4926 23.1503 90.9851 23.1026 91.4618 23.1026C92.6692 23.1026 93.5854 23.3621 94.2103 23.8811C94.8458 24.3895 95.1635 25.0726 95.1635 25.9306C95.1635 26.4707 95.0311 26.9579 94.7663 27.3922C94.5121 27.8264 94.1308 28.1336 93.6224 28.3137C94.2156 28.4725 94.6551 28.7532 94.9411 29.1557C95.2376 29.5582 95.3859 30.0507 95.3859 30.6332C95.3859 31.6288 95.0311 32.3808 94.3215 32.8892C93.6224 33.3976 92.6586 33.6518 91.43 33.6518Z" fill="black"/>
<line x1="9.95776" y1="15.3498" x2="98.4413" y2="15.3498" stroke="black" stroke-width="0.661972"/>
</g>
<defs>
<filter id="filter0_d" x="0" y="0" width="110.606" height="55" filterUnits="userSpaceOnUse" color-interpolation-filters="sRGB">
<feFlood flood-opacity="0" result="BackgroundImageFix"/>
<feColorMatrix in="SourceAlpha" type="matrix" values="0 0 0 0 0 0 0 0 0 0 0 0 0 0 0 0 0 0 127 0"/>
<feOffset dy="2"/>
<feGaussianBlur stdDeviation="2"/>
<feColorMatrix type="matrix" values="0 0 0 0 0 0 0 0 0 0 0 0 0 0 0 0 0 0 0.25 0"/>
<feBlend mode="normal" in2="BackgroundImageFix" result="effect1_dropShadow"/>
<feBlend mode="normal" in="SourceGraphic" in2="effect1_dropShadow" result="shape"/>
</filter>
</defs>
</svg>
