<svg width="76" height="76" viewBox="0 0 76 76" fill="none" xmlns="http://www.w3.org/2000/svg">
<path d="M57.76 76C55.6017 76.0021 53.4708 75.5178 51.5254 74.583C40.6509 69.3557 30.742 62.3214 22.2203 53.7797C13.6786 45.258 6.64434 35.3491 1.41694 24.4746C0.123539 21.7554 -0.294747 18.702 0.219719 15.7352C0.734186 12.7684 2.15608 10.0341 4.28948 7.90915L11.2454 0.940339C11.8513 0.337955 12.671 -0.000115362 13.5254 2.95296e-08V2.95296e-08C14.3798 -0.000115362 15.1995 0.337955 15.8054 0.940339L32.3708 17.5186C32.6703 17.8167 32.908 18.171 33.0702 18.5611C33.2324 18.9513 33.3158 19.3697 33.3158 19.7922C33.3158 20.2147 33.2324 20.6331 33.0702 21.0233C32.908 21.4134 32.6703 21.7677 32.3708 22.0658L26.3939 28.0427C29.0094 32.4716 32.1731 36.5528 35.8102 40.1898C39.4445 43.8299 43.5261 46.9939 47.9573 49.6061L53.9342 43.6292C54.2323 43.3296 54.5866 43.092 54.9767 42.9298C55.3669 42.7676 55.7853 42.6842 56.2078 42.6842C56.6303 42.6842 57.0487 42.7676 57.4389 42.9298C57.829 43.092 58.1833 43.3296 58.4813 43.6292L75.0597 60.1946C75.6591 60.802 75.9952 61.6211 75.9952 62.4746C75.9952 63.328 75.6591 64.1471 75.0597 64.7546L68.0908 71.7105C66.7351 73.0691 65.1249 74.1473 63.3523 74.8833C61.5796 75.6193 59.6793 75.9988 57.76 76ZM13.5254 7.72881L8.8366 12.4563C7.64732 13.641 6.85404 15.1649 6.56573 16.8187C6.27742 18.4724 6.50822 20.1749 7.22643 21.6922C12.1382 31.9061 18.7454 41.2137 26.7675 49.2197C34.7766 57.2471 44.0886 63.8587 54.3078 68.7736C55.826 69.4921 57.5297 69.7218 59.1839 69.4311C60.8382 69.1404 62.3615 68.3436 63.5437 67.1505L68.2712 62.4746L56.2529 50.4563L50.8298 55.8793C50.3368 56.3841 49.6915 56.713 48.9934 56.8154C48.2952 56.9178 47.5827 56.7881 46.9654 56.4461C41.1832 53.3316 35.8885 49.3867 31.2502 44.7369C26.5966 40.1019 22.6512 34.8066 19.541 29.0217C19.199 28.4044 19.0693 27.6919 19.1717 26.9938C19.2741 26.2956 19.603 25.6503 20.1078 25.1573L25.5308 19.7214L13.5254 7.72881Z" fill="#3F65FF"/>
</svg>
