<svg width="71" height="71" viewBox="0 0 71 71" fill="none" xmlns="http://www.w3.org/2000/svg">
<g filter="url(#filter0_d)">
<circle cx="35.4816" cy="31.4816" r="31.4816" fill="#243060"/>
<g clip-path="url(#clip0)">
<path d="M34.9219 52.4693C34.5317 52.4693 34.152 52.3444 33.8399 52.1135C33.2195 51.6511 18.6914 40.7304 18.6914 26.5014C18.6914 22.256 20.4014 18.1844 23.4452 15.1824C26.489 12.1804 30.6173 10.4939 34.9219 10.4939C39.2265 10.4939 43.3548 12.1804 46.3986 15.1824C49.4424 18.1844 51.1524 22.256 51.1524 26.5014C51.1524 40.7304 36.6243 51.6511 36.0039 52.1135C35.6918 52.3444 35.3121 52.4693 34.9219 52.4693ZM34.9219 14.0511C31.5751 14.0549 28.3664 15.3678 25.9998 17.7019C23.6332 20.0359 22.302 23.2005 22.2982 26.5014C22.2982 36.8174 31.6758 45.6536 34.9219 48.3927C38.168 45.6536 47.5456 36.8174 47.5456 26.5014C47.5418 23.2005 46.2106 20.0359 43.844 17.7019C41.4774 15.3678 38.2687 14.0549 34.9219 14.0511Z" fill="white"/>
<path d="M34.9219 33.2602C33.5665 33.2602 32.2416 32.8638 31.1147 32.1211C29.9877 31.3785 29.1094 30.3229 28.5907 29.0879C28.072 27.8529 27.9363 26.4939 28.2007 25.1829C28.4651 23.8718 29.1178 22.6675 30.0762 21.7223C31.0346 20.777 32.2557 20.1333 33.585 19.8725C34.9143 19.6118 36.2922 19.7456 37.5444 20.2572C38.7966 20.7687 39.8669 21.635 40.6199 22.7465C41.3729 23.8579 41.7748 25.1647 41.7748 26.5014C41.7729 28.2934 41.0503 30.0114 39.7655 31.2785C38.4808 32.5456 36.7388 33.2583 34.9219 33.2602ZM34.9219 23.2999C34.2799 23.2999 33.6523 23.4877 33.1185 23.8395C32.5847 24.1912 32.1686 24.6913 31.9229 25.2763C31.6772 25.8613 31.6129 26.505 31.7382 27.126C31.8634 27.747 32.1726 28.3175 32.6266 28.7652C33.0805 29.213 33.6589 29.5179 34.2886 29.6414C34.9183 29.765 35.571 29.7016 36.1641 29.4592C36.7573 29.2169 37.2643 28.8066 37.6209 28.2801C37.9776 27.7536 38.168 27.1346 38.168 26.5014C38.1661 25.6529 37.8235 24.8397 37.2151 24.2397C36.6068 23.6397 35.7822 23.3018 34.9219 23.2999Z" fill="white"/>
</g>
</g>
<defs>
<filter id="filter0_d" x="0" y="0" width="70.9631" height="70.9631" filterUnits="userSpaceOnUse" color-interpolation-filters="sRGB">
<feFlood flood-opacity="0" result="BackgroundImageFix"/>
<feColorMatrix in="SourceAlpha" type="matrix" values="0 0 0 0 0 0 0 0 0 0 0 0 0 0 0 0 0 0 127 0"/>
<feOffset dy="4"/>
<feGaussianBlur stdDeviation="2"/>
<feColorMatrix type="matrix" values="0 0 0 0 0 0 0 0 0 0 0 0 0 0 0 0 0 0 0.25 0"/>
<feBlend mode="normal" in2="BackgroundImageFix" result="effect1_dropShadow"/>
<feBlend mode="normal" in="SourceGraphic" in2="effect1_dropShadow" result="shape"/>
</filter>
<clipPath id="clip0">
<rect width="32.461" height="41.9754" fill="white" transform="translate(18.6914 10.4939)"/>
</clipPath>
</defs>
</svg>
