<svg width="16" height="20" viewBox="0 0 16 20" fill="none" xmlns="http://www.w3.org/2000/svg">
<g clip-path="url(#clip0)">
<path d="M7.73333 20C7.54741 20 7.36651 19.9405 7.21778 19.8305C6.92219 19.6102 0 14.4068 0 7.62712C0 5.60428 0.814759 3.66429 2.26504 2.23393C3.71532 0.803569 5.68232 0 7.73333 0C9.78434 0 11.7513 0.803569 13.2016 2.23393C14.6519 3.66429 15.4667 5.60428 15.4667 7.62712C15.4667 14.4068 8.54447 19.6102 8.24889 19.8305C8.10015 19.9405 7.91925 20 7.73333 20ZM7.73333 1.69492C6.13866 1.69671 4.60983 2.32228 3.48223 3.4344C2.35462 4.54651 1.72034 6.05435 1.71852 7.62712C1.71852 12.5424 6.18667 16.7525 7.73333 18.0576C9.28 16.7525 13.7481 12.5424 13.7481 7.62712C13.7463 6.05435 13.112 4.54651 11.9844 3.4344C10.8568 2.32228 9.328 1.69671 7.73333 1.69492Z" fill="white"/>
<path d="M7.73333 10.8475C7.08753 10.8475 6.45624 10.6586 5.91929 10.3048C5.38233 9.9509 4.96382 9.44795 4.71669 8.85951C4.46955 8.27107 4.40489 7.62357 4.53088 6.99888C4.65687 6.3742 4.96785 5.80039 5.42449 5.35002C5.88114 4.89964 6.46294 4.59294 7.09632 4.46868C7.7297 4.34442 8.38622 4.40819 8.98286 4.65193C9.57949 4.89567 10.0894 5.30843 10.4482 5.83801C10.807 6.3676 10.9985 6.99022 10.9985 7.62714C10.9976 8.48095 10.6533 9.29953 10.0412 9.90327C9.42901 10.507 8.59903 10.8466 7.73333 10.8475ZM7.73333 6.10172C7.42742 6.10172 7.12839 6.19118 6.87404 6.3588C6.6197 6.52641 6.42146 6.76465 6.30439 7.04339C6.18733 7.32212 6.1567 7.62883 6.21638 7.92473C6.27606 8.22064 6.42336 8.49244 6.63967 8.70578C6.85597 8.91911 7.13156 9.06439 7.43159 9.12325C7.73161 9.18211 8.04259 9.1519 8.32521 9.03645C8.60783 8.92099 8.84938 8.72547 9.01933 8.47462C9.18928 8.22376 9.27999 7.92884 9.27999 7.62714C9.27908 7.22285 9.11584 6.83537 8.82598 6.54949C8.53612 6.26361 8.14325 6.10261 7.73333 6.10172Z" fill="white"/>
</g>
<defs>
<clipPath id="clip0">
<rect width="15.4667" height="20" fill="white"/>
</clipPath>
</defs>
</svg>
