<svg width="26" height="26" viewBox="0 0 26 26" fill="none" xmlns="http://www.w3.org/2000/svg">
<g clip-path="url(#clip0)">
<path d="M2.93218 23.7106C2.6851 23.7095 2.44825 23.6131 2.27218 23.442C2.15816 23.3286 2.0759 23.188 2.03341 23.0338C1.99093 22.8797 1.98969 22.7173 2.02981 22.5625L3.18574 18.1027C3.2273 17.943 3.31092 17.797 3.42811 17.6795L19.0444 2.26871C19.2202 2.09747 19.4573 2.00146 19.7044 2.00146C19.9514 2.00146 20.1885 2.09747 20.3644 2.26871L23.7203 5.58049C23.8947 5.75355 23.9926 5.98771 23.9926 6.2318C23.9926 6.47589 23.8947 6.71005 23.7203 6.88312L8.1115 22.3013C7.99244 22.4169 7.8445 22.4994 7.68269 22.5405L3.16337 23.6812C3.08776 23.7 3.01015 23.7099 2.93218 23.7106ZM4.9271 18.8018L4.23727 21.5028L6.9854 20.811L21.7627 6.23916L19.7044 4.20794L4.9271 18.8018Z" fill="white"/>
<path d="M20.1817 10.0071C19.9342 10.0025 19.6985 9.90202 19.5254 9.72745L16.1695 6.41568C16.0828 6.33014 16.0141 6.2286 15.9672 6.11685C15.9203 6.0051 15.8961 5.88532 15.8961 5.76436C15.8961 5.6434 15.9203 5.52362 15.9672 5.41187C16.0141 5.30012 16.0828 5.19858 16.1695 5.11305C16.2562 5.02751 16.3591 4.95967 16.4723 4.91338C16.5856 4.86709 16.7069 4.84326 16.8295 4.84326C16.9521 4.84326 17.0734 4.86709 17.1867 4.91338C17.2999 4.95967 17.4028 5.02751 17.4895 5.11305L20.8454 8.42482C20.9761 8.55348 21.0652 8.71755 21.1013 8.89621C21.1374 9.07488 21.1189 9.2601 21.0483 9.4284C20.9776 9.5967 20.8578 9.7405 20.7042 9.84156C20.5506 9.94262 20.37 9.9964 20.1854 9.99607L20.1817 10.0071Z" fill="white"/>
<path d="M19.4844 23.7106H11.9261C11.6789 23.7106 11.4418 23.6137 11.2669 23.4412C11.0921 23.2686 10.9939 23.0346 10.9939 22.7907C10.9939 22.5467 11.0921 22.3127 11.2669 22.1402C11.4418 21.9676 11.6789 21.8707 11.9261 21.8707H19.4844C19.7316 21.8707 19.9688 21.9676 20.1436 22.1402C20.3184 22.3127 20.4166 22.5467 20.4166 22.7907C20.4166 23.0346 20.3184 23.2686 20.1436 23.4412C19.9688 23.6137 19.7316 23.7106 19.4844 23.7106Z" fill="white"/>
</g>
<defs>
<clipPath id="clip0">
<rect width="22" height="21.7105" fill="white" transform="translate(2 2)"/>
</clipPath>
</defs>
</svg>
