<svg width="20" height="20" viewBox="0 0 20 20" fill="none" xmlns="http://www.w3.org/2000/svg">
<g clip-path="url(#clip0)">
<path d="M7.96609 15.9322C6.39054 15.9322 4.85038 15.465 3.54036 14.5897C2.23034 13.7144 1.20931 12.4702 0.606372 11.0146C0.00343636 9.55899 -0.154319 7.95727 0.153055 6.412C0.460429 4.86672 1.21913 3.4473 2.33321 2.33322C3.44728 1.21914 4.86671 0.460444 6.41198 0.15307C7.95725 -0.154304 9.55897 0.00345161 11.0146 0.606387C12.4702 1.20932 13.7143 2.23036 14.5897 3.54038C15.465 4.8504 15.9322 6.39056 15.9322 7.96611C15.9304 10.0783 15.0905 12.1035 13.597 13.597C12.1034 15.0906 10.0783 15.9304 7.96609 15.9322ZM7.96609 1.69492C6.72577 1.69492 5.5133 2.06272 4.48201 2.7518C3.45071 3.44089 2.64692 4.42032 2.17227 5.56623C1.69762 6.71214 1.57343 7.97306 1.8154 9.18955C2.05738 10.406 2.65465 11.5235 3.53169 12.4005C4.40873 13.2775 5.52615 13.8748 6.74264 14.1168C7.95913 14.3588 9.22006 14.2346 10.366 13.7599C11.5119 13.2853 12.4913 12.4815 13.1804 11.4502C13.8695 10.4189 14.2373 9.20643 14.2373 7.96611C14.2355 6.30343 13.5742 4.70938 12.3985 3.53369C11.2228 2.358 9.62876 1.69671 7.96609 1.69492Z" fill="#4F4F4F"/>
<path d="M19.1525 20C19.0412 20.0004 18.9308 19.9787 18.8278 19.9363C18.7248 19.8938 18.6313 19.8314 18.5525 19.7526L12.4 13.6C12.2409 13.4409 12.1515 13.2251 12.1515 13C12.1515 12.775 12.2409 12.5591 12.4 12.4C12.5591 12.2409 12.775 12.1515 13 12.1515C13.225 12.1515 13.4409 12.2409 13.6 12.4L19.7525 18.5526C19.9103 18.7124 19.9987 18.928 19.9987 19.1526C19.9987 19.3772 19.9103 19.5927 19.7525 19.7526C19.6738 19.8314 19.5803 19.8938 19.4773 19.9363C19.3743 19.9787 19.2639 20.0004 19.1525 20Z" fill="#4F4F4F"/>
</g>
<defs>
<clipPath id="clip0">
<rect width="20" height="20" fill="white"/>
</clipPath>
</defs>
</svg>
