<svg width="68" height="75" viewBox="0 0 68 75" fill="none" xmlns="http://www.w3.org/2000/svg">
<path d="M54.5283 75H13.4717C9.89982 74.9966 6.47522 73.5893 3.94952 71.0869C1.42382 68.5845 0.00339693 65.1915 0 61.6525L0 38.7712C0.00339693 35.2322 1.42382 31.8392 3.94952 29.3368C6.47522 26.8344 9.89982 25.4271 13.4717 25.4237H21.1698C22.0205 25.4237 22.8364 25.7585 23.4379 26.3545C24.0394 26.9505 24.3774 27.7588 24.3774 28.6017C24.3774 29.4445 24.0394 30.2528 23.4379 30.8488C22.8364 31.4448 22.0205 31.7796 21.1698 31.7796H13.4717C11.6012 31.783 9.80831 32.5207 8.48567 33.8311C7.16304 35.1416 6.41849 36.9179 6.41509 38.7712V61.6525C6.41849 63.5058 7.16304 65.2821 8.48567 66.5926C9.80831 67.903 11.6012 68.6407 13.4717 68.644H54.5283C56.3988 68.6407 58.1917 67.903 59.5143 66.5926C60.837 65.2821 61.5815 63.5058 61.5849 61.6525V38.7712C61.5815 36.9179 60.837 35.1416 59.5143 33.8311C58.1917 32.5207 56.3988 31.783 54.5283 31.7796H46.8302C45.9795 31.7796 45.1636 31.4448 44.5621 30.8488C43.9606 30.2528 43.6226 29.4445 43.6226 28.6017C43.6226 27.7588 43.9606 26.9505 44.5621 26.3545C45.1636 25.7585 45.9795 25.4237 46.8302 25.4237H54.5283C58.1002 25.4271 61.5248 26.8344 64.0505 29.3368C66.5762 31.8392 67.9966 35.2322 68 38.7712V61.6525C67.9966 65.1915 66.5762 68.5845 64.0505 71.0869C61.5248 73.5893 58.1002 74.9966 54.5283 75Z" fill="#3F65FF"/>
<path d="M34 57.2034C33.1493 57.2034 32.3335 56.8686 31.7319 56.2726C31.1304 55.6766 30.7925 54.8683 30.7925 54.0254V3.17797C30.7925 2.33512 31.1304 1.52679 31.7319 0.930805C32.3335 0.33482 33.1493 0 34 0C34.8507 0 35.6666 0.33482 36.2681 0.930805C36.8696 1.52679 37.2076 2.33512 37.2076 3.17797V54.0254C37.2076 54.8683 36.8696 55.6766 36.2681 56.2726C35.6666 56.8686 34.8507 57.2034 34 57.2034Z" fill="#3F65FF"/>
<path d="M46.8302 19.0677C46.4086 19.0692 45.9909 18.9879 45.6011 18.8287C45.2114 18.6694 44.8573 18.4353 44.5593 18.1398L34 7.62707L23.4408 18.0889C22.8385 18.6857 22.0216 19.0209 21.1699 19.0209C20.3181 19.0209 19.5012 18.6857 18.8989 18.0889C18.2966 17.4922 17.9583 16.6828 17.9583 15.8389C17.9583 14.995 18.2966 14.1857 18.8989 13.5889L31.7291 0.87707C32.3342 0.285525 33.15 -0.0461426 34 -0.0461426C34.8501 -0.0461426 35.6659 0.285525 36.271 0.87707L49.1012 13.5889C49.6982 14.1884 50.033 14.9967 50.033 15.8389C50.033 16.6811 49.6982 17.4895 49.1012 18.0889C48.8074 18.3936 48.4553 18.6372 48.0653 18.8052C47.6754 18.9733 47.2555 19.0626 46.8302 19.0677Z" fill="#3F65FF"/>
</svg>
