<svg width="20" height="19" viewBox="0 0 20 19" fill="none" xmlns="http://www.w3.org/2000/svg">
<g clip-path="url(#clip0)">
<path d="M14.4407 12.7377H7.90169C7.07652 12.7369 6.27717 12.4531 5.63987 11.9348C5.00258 11.4165 4.56679 10.6956 4.40677 9.89517L3.38982 4.73976C3.38982 4.73976 3.38982 4.723 3.38982 4.71295L3.12203 3.3185C3.05237 2.96095 2.87702 2.63187 2.61815 2.37291C2.35928 2.11395 2.02854 1.93674 1.66779 1.86373L0.67796 1.67601C0.567783 1.654 0.463069 1.61075 0.369797 1.54872C0.276525 1.4867 0.196521 1.40711 0.134353 1.31451C0.00879852 1.12749 -0.0364833 0.898818 0.00846869 0.678788C0.0534206 0.458757 0.184924 0.265397 0.37405 0.141243C0.563175 0.0170896 0.794431 -0.0276871 1.01694 0.0167635L2.01355 0.221237C2.70416 0.362441 3.33663 0.703698 3.83044 1.20155C4.32425 1.6994 4.65704 2.33132 4.78643 3.01682L4.92881 3.74756H19.1661C19.3034 3.74743 19.4388 3.78031 19.5604 3.84338C19.6821 3.90644 19.7864 3.9978 19.8644 4.10958C19.9428 4.22129 19.9921 4.35037 20.0081 4.48542C20.0241 4.62047 20.0061 4.75732 19.9559 4.8839L17.7661 10.4885C17.5037 11.1498 17.0464 11.718 16.4534 12.119C15.8604 12.5201 15.1591 12.7357 14.4407 12.7377ZM5.25423 5.40681L6.07118 9.57673C6.15519 9.99557 6.38362 10.3726 6.71746 10.6434C7.05131 10.9142 7.46987 11.0621 7.90169 11.0617H14.4407C14.8178 11.0606 15.1858 10.9471 15.4966 10.736C15.8074 10.5249 16.0467 10.226 16.183 9.87841L17.922 5.39676L5.25423 5.40681Z" fill="#3F65FF"/>
<path d="M14.3457 18.1579C15.2818 18.1579 16.0406 17.4076 16.0406 16.4819C16.0406 15.5563 15.2818 14.8059 14.3457 14.8059C13.4097 14.8059 12.6508 15.5563 12.6508 16.4819C12.6508 17.4076 13.4097 18.1579 14.3457 18.1579Z" fill="#3F65FF"/>
<path d="M7.68814 18.1579C8.62422 18.1579 9.38306 17.4076 9.38306 16.4819C9.38306 15.5563 8.62422 14.8059 7.68814 14.8059C6.75206 14.8059 5.99323 15.5563 5.99323 16.4819C5.99323 17.4076 6.75206 18.1579 7.68814 18.1579Z" fill="#3F65FF"/>
</g>
<defs>
<clipPath id="clip0">
<rect width="20" height="18.1579" fill="white"/>
</clipPath>
</defs>
</svg>
