<svg width="336" height="287" viewBox="0 0 336 287" fill="none" xmlns="http://www.w3.org/2000/svg">
<circle cx="163" cy="115" r="71" stroke="white" stroke-width="2" stroke-linecap="round" stroke-linejoin="round" stroke-dasharray="5 10"/>
<circle cx="266" cy="103" r="71" stroke="white" stroke-width="2" stroke-linecap="round" stroke-linejoin="round" stroke-dasharray="5 10"/>
<circle cx="72" cy="54" r="53" stroke="white" stroke-width="2" stroke-linecap="round" stroke-linejoin="round" stroke-dasharray="5 10"/>
<path d="M189.274 175.682H162.817V283.404H189.274V175.682Z" fill="#274A96"/>
<path d="M176.458 160.912H147.193V283.404H176.458V160.912Z" fill="#2D5CA0"/>
<path d="M172.887 154.016H150.732V161.339H172.887V154.016Z" fill="#2D5CA0"/>
<path d="M168.432 146.753H155.188V154.077H168.432V146.753Z" fill="#2D5CA0"/>
<path d="M92.6296 102.962H49.5407V283.404H92.6296V102.962Z" fill="#2D5CA0"/>
<path d="M87.3808 92.8H54.759V103.603H87.3808V92.8Z" fill="#2D5CA0"/>
<path d="M80.8503 82.0889H61.3505V92.8916H80.8503V82.0889Z" fill="#2D5CA0"/>
<path d="M148.108 158.349H102.73V283.404H148.108V158.349Z" fill="#274A96"/>
<path d="M257.478 149.042H222.445V277.087H257.478V149.042Z" fill="#274A96"/>
<path d="M305.022 185.844H269.99V284.747H305.022V185.844Z" fill="#274A96"/>
<path d="M242.739 167.626H211.246V284.747H242.739V167.626Z" fill="#2D5CA0"/>
<path d="M285.858 140.283H241.793V284.747H285.858V140.283Z" fill="#2D5CA0"/>
<path d="M304.992 178.52H297.241V185.844H304.992V178.52Z" fill="#274A96"/>
<path d="M278.748 132.349H248.873V140.283H278.748V132.349Z" fill="#2D5CA0"/>
<path d="M305.053 286.7H1.29459C0.653753 286.7 0.104462 286.181 0.104462 285.51V284.594C0.104462 283.954 0.623237 283.404 1.29459 283.404H305.053C305.694 283.404 306.243 283.923 306.243 284.594V285.51C306.243 286.181 305.694 286.7 305.053 286.7Z" fill="#95A6DB"/>
<path d="M275.793 260.528C275.895 259.307 275.793 258.086 275.539 256.916C275.107 254.881 274.115 252.439 271.444 250.175C265.745 245.367 247.252 239.135 231.506 239.338C229.217 238.015 207.9 221.633 198.488 216.342C189.585 211.382 139.726 214.384 135.148 214.994C122.556 216.571 99.4329 237.278 99.0259 243.434C99.0005 243.739 98.9751 265.666 99.3566 267.116C99.7128 268.566 118.893 271.797 118.893 271.797C118.893 271.797 267.959 275.867 270.07 275.536C272.054 275.434 273.911 274.468 275.183 272.916C276.251 271.11 275.793 260.528 275.793 260.528ZM137.844 240.61C137.844 240.61 128.865 238.575 128.839 235.039C128.814 231.503 145.73 217.792 155.447 218.352C155.447 218.352 157.253 232.623 161.603 240.686C156.185 240.788 137.844 240.61 137.844 240.61ZM165.317 240.61C160.585 233.589 158.169 217.945 158.169 217.945C158.169 217.945 184.166 218.123 189.178 218.53C194.189 218.937 225.859 242.213 225.859 242.213C225.859 242.213 170.532 240.788 165.317 240.61Z" fill="#E84118"/>
<path d="M275.793 263.148C275.793 263.148 276.225 271.034 275.182 272.815C273.911 274.366 272.079 275.307 270.069 275.435C267.958 275.791 106.199 275.765 103.35 275.435C100.475 275.104 99.3562 271.187 99.3053 268.083C99.3053 267.422 99.0509 269.126 99 263.174H275.793V263.148Z" fill="#AF2B15"/>
<path d="M222.068 268.236C222.094 257.908 230.488 249.539 240.816 249.564C251.144 249.59 259.513 257.984 259.487 268.312C259.487 270.347 259.157 272.357 258.495 274.265L226.901 275.765L222.577 272.433C222.246 271.034 222.094 269.635 222.068 268.236Z" fill="#AF2B15"/>
<path d="M256.315 271.02C257.854 262.433 252.141 254.224 243.553 252.685C234.966 251.146 226.757 256.859 225.218 265.447C223.679 274.034 229.393 282.243 237.98 283.782C246.567 285.321 254.776 279.607 256.315 271.02Z" fill="#05144C"/>
<path d="M252.088 268.551C252.261 262.302 247.336 257.095 241.086 256.922C234.837 256.748 229.631 261.674 229.457 267.923C229.284 274.172 234.209 279.379 240.458 279.552C246.708 279.726 251.914 274.801 252.088 268.551Z" fill="#213063"/>
<path d="M241.027 274.71C244.606 274.561 247.387 271.539 247.238 267.96C247.089 264.38 244.067 261.599 240.488 261.748C236.908 261.897 234.128 264.92 234.276 268.499C234.425 272.078 237.448 274.859 241.027 274.71Z" fill="white"/>
<path d="M116.45 268.236C116.45 257.908 124.819 249.514 135.173 249.514C145.5 249.514 153.895 257.883 153.895 268.236C153.92 270.195 153.615 272.153 152.979 274.01L116.883 272.077C116.603 270.805 116.476 269.533 116.45 268.236Z" fill="#AF2B15"/>
<path d="M135.173 252.439C126.447 252.439 119.376 259.511 119.376 268.21C119.376 276.935 126.447 284.007 135.147 284.007C143.872 284.007 150.944 276.935 150.944 268.236C150.969 259.511 143.898 252.439 135.173 252.439Z" fill="#05144C"/>
<path d="M138.768 278.976C144.699 276.996 147.902 270.584 145.922 264.654C143.943 258.723 137.531 255.52 131.601 257.5C125.67 259.479 122.467 265.891 124.446 271.822C126.426 277.752 132.838 280.955 138.768 278.976Z" fill="#213063"/>
<path d="M135.173 261.749C131.586 261.749 128.686 264.649 128.686 268.236C128.686 271.822 131.586 274.722 135.173 274.722C138.759 274.722 141.659 271.822 141.659 268.236C141.659 264.649 138.759 261.749 135.173 261.749Z" fill="white"/>
<path d="M259.157 249.386C259.157 249.386 271.443 250.175 273.224 255.797C274.19 257.755 263.278 256.534 263.278 256.534L259.157 249.386Z" fill="#F37A50"/>
<path d="M225.859 242.238L218.202 236.26C218.202 236.26 209.604 234.683 209.222 241.017C209.451 247.122 223.569 243.815 225.859 242.238Z" fill="#AF2B15"/>
<path d="M180.961 246.792H169.488C168.801 246.792 168.242 246.232 168.242 245.545C168.242 244.858 168.801 244.299 169.488 244.299H180.961C181.648 244.299 182.207 244.858 182.207 245.545C182.207 246.232 181.648 246.792 180.961 246.792Z" fill="#AF2B15"/>
<path d="M97.6648 283.984L22.8085 284.015C14.6607 284.015 8.06921 277.423 8.06921 269.306L7.97766 129.419C7.97766 121.272 14.5692 114.68 22.6865 114.68L97.5427 114.65C105.691 114.65 112.282 121.241 112.282 129.358L112.374 269.245C112.404 277.393 105.813 283.984 97.6648 283.984Z" fill="#05144C"/>
<path d="M94.308 279.681L26.1958 279.712C18.7804 279.712 12.7992 273.639 12.7992 266.102L12.7382 132.807C12.7382 125.3 18.7193 119.197 26.1348 119.197L94.2469 119.166C101.662 119.166 107.644 125.239 107.644 132.776L107.705 266.071C107.705 273.578 101.723 279.681 94.308 279.681Z" fill="#C3D3E2"/>
<path d="M79.3245 231.344L93.7892 222.25L96.7798 230.489L83.2916 238.942L84.7564 241.414L107.674 227.071V223.654L99.3127 228.872L96.2916 220.633L107.644 213.492V196.891L106.209 194.511L107.644 192.497V187.431L104.409 191.947L92.0498 185.814L102.608 171.013L107.613 173.79V170.433L104.317 168.602L107.613 163.994V157.922L102.12 154.87L107.613 154.29V151.361L97.6343 152.368L76.7612 140.772L104.287 127.07L107.583 133.082V132.685C107.583 127.65 104.897 123.286 100.899 120.906L101.449 121.882L90.646 127.253L82.3762 119.044H78.1954L87.808 128.657L71.8176 136.621L53.7214 123.164L56.0407 119.075H49.4797L43.9868 127.192L36.9375 123.499L39.8366 119.166H36.2967L32.3296 125.056L27.1724 119.166H26.1043C23.0527 119.166 20.4893 120.417 20.4893 120.417L25.7686 126.49L12.7687 131.373C12.7077 131.83 12.7077 134.516 12.7077 134.516L27.7827 128.87L27.7522 128.84L28.7897 130.03L18.4142 148.34L12.7382 135.431V149.896L14.8133 154.626L12.7382 158.288V168.023L20.8555 180.382L19.3907 182.243L12.7687 184.562V187.675L21.1607 184.745L35.5948 166.436L41.3319 168.938L16.8274 223.074L12.7687 202.994V218.069L14.0199 224.325L12.7687 224.691V230.733L18.4447 229.116L59.1228 243.337L72.0007 235.616L71.2377 238.423H77.4325L79.3245 231.344ZM100.655 196.555L106.942 207.053L94.247 214.956L89.3644 201.56L98.153 195.304L100.655 196.555ZM95.193 193.839L87.4418 199.332L80.4842 195.792L88.2048 190.36L95.193 193.839ZM62.2355 205.1L56.1933 196.982L52.7144 184.959L74.7776 196.189L62.2355 205.1ZM63.3035 216.482L53.1416 223.684L57.9022 209.25L63.3035 216.482ZM85.1226 188.835L77.4631 194.267L51.5853 181.084L48.8389 170.8L85.1226 188.835ZM48.8999 154.168L49.1135 154.626L61.7167 148.37L74.7776 155.602L63.3646 171.623L53.5689 166.771L48.8999 154.168ZM47.8623 189.475L50.7614 199.637L51.0665 200.065L54.4843 204.612L39.5924 200.339L47.8623 189.475ZM77.7682 197.715L84.7259 201.255L68.1251 213.034L63.9444 207.419L77.7682 197.715ZM89.4254 184.562L66.0195 172.936L77.3715 157.037L100.076 169.64L89.4254 184.562ZM97.8174 155.877L106.453 160.668L101.784 167.229L93.301 162.53L97.8174 155.877ZM73.618 142.419L95.193 154.412L90.7986 161.126L64.9514 146.753L73.618 142.419ZM52.1346 125.666L59.0313 130.793L55.766 135.187L48.8083 130.457L52.1346 125.666ZM47.1605 132.868L56.3458 139.124L61.3505 132.532L68.949 138.178L47.0384 149.103L43.1934 138.635L47.1605 132.868ZM35.839 125.147L42.3389 129.572L39.6535 133.417L34.3437 127.344L35.839 125.147ZM30.8648 132.349L36.1746 138.452L24.5174 155.236L20.7029 153.588L19.879 151.696L30.8648 132.349ZM22.778 177.94L13.2264 163.415L16.3086 157.983L32.8178 165.185L22.778 177.94ZM30.0409 157.647L39.0737 144.556L46.6112 164.849L30.0409 157.647ZM44.2004 176.689L46.8553 185.966L30.1019 207.968L44.2004 176.689ZM22.6865 224.355L24.7311 219.839L37.6699 202.842L55.2473 207.938L47.0079 232.9L22.6865 224.355ZM58.4209 236.898L49.8154 233.877L51.6158 228.384L65.0735 218.832L72.3974 228.628L58.4209 236.898ZM77.3715 225.454L69.895 215.414L86.8926 203.36L91.7141 216.574L77.3715 225.454Z" fill="white"/>
<path d="M24.5174 155.236L36.1746 138.452L30.8648 132.349L19.879 151.696L20.7029 153.588L24.5174 155.236Z" fill="#00B257"/>
<path d="M107.644 133.143L104.348 127.131L76.7917 140.833L97.6648 152.429L107.644 151.422V133.143Z" fill="#00B257"/>
<path d="M53.1721 223.684L57.9022 209.25L63.3035 216.482L53.1721 223.684Z" fill="#00B257"/>
<path d="M56.0712 141.809C51.0665 141.809 47.0079 145.868 47.0079 150.872C47.0079 155.877 56.0712 171.379 56.0712 171.379C56.0712 171.379 65.1345 155.877 65.1345 150.872C65.104 145.837 61.0453 141.809 56.0712 141.809ZM56.0712 155.48C53.6604 155.48 51.7074 153.527 51.7074 151.117C51.7074 148.706 53.6604 146.753 56.0712 146.753C58.482 146.753 60.435 148.706 60.435 151.117C60.435 153.527 58.482 155.48 56.0712 155.48Z" fill="#3562FF"/>
<path d="M54.4538 170.891C54.3623 170.891 54.2707 170.861 54.2097 170.83L52.2872 169.976C51.982 169.823 51.8294 169.457 51.9515 169.152C52.1041 168.846 52.4703 168.694 52.7754 168.816L54.698 169.67C55.0031 169.823 55.1557 170.189 55.0336 170.494C54.9116 170.769 54.698 170.891 54.4538 170.891Z" fill="#3562FF"/>
<path d="M50.1816 168.999C50.09 168.999 49.9985 168.969 49.9374 168.938L47.5877 167.9C47.2825 167.748 47.1299 167.382 47.252 167.077C47.4046 166.771 47.7708 166.619 48.0759 166.741L50.4257 167.778C50.7309 167.931 50.8834 168.297 50.7614 168.602C50.6393 168.877 50.4257 168.999 50.1816 168.999Z" fill="#3562FF"/>
<path d="M44.1699 168.084C43.8952 168.084 43.6511 167.9 43.5595 167.626L42.9492 165.612C42.8882 165.368 42.9492 165.124 43.1323 164.971C43.3154 164.818 43.5901 164.757 43.8037 164.879L45.7262 165.734C46.0314 165.886 46.1839 166.253 46.0619 166.558C45.9093 166.863 45.5431 167.016 45.2379 166.893L44.5666 166.588L44.7802 167.29C44.8717 167.626 44.6886 167.962 44.353 168.084C44.2919 168.084 44.2309 168.084 44.1699 168.084Z" fill="#3562FF"/>
<path d="M72.1227 224.233C71.9396 224.233 71.726 224.142 71.6039 223.959L69.2847 220.724C69.0711 220.449 69.1626 220.053 69.4373 219.839C69.7119 219.625 70.1086 219.717 70.3223 219.992L72.6415 223.226C72.8551 223.501 72.7636 223.898 72.4889 224.111C72.3668 224.203 72.2448 224.233 72.1227 224.233ZM67.5148 217.764C67.3317 217.764 67.1181 217.672 66.996 217.489L64.6768 214.255C64.4632 213.98 64.5547 213.583 64.8293 213.37C65.104 213.156 65.5007 213.248 65.7143 213.522L68.0335 216.757C68.2472 217.032 68.1556 217.428 67.881 217.642C67.7589 217.733 67.6368 217.764 67.5148 217.764ZM62.8763 211.294C62.6932 211.294 62.4796 211.203 62.3575 211.02L60.0383 207.785C59.8247 207.51 59.9162 207.114 60.1909 206.9C60.4655 206.687 60.8622 206.778 61.0758 207.053L63.3951 210.287C63.6087 210.562 63.5171 210.959 63.2425 211.172C63.1509 211.264 63.0289 211.294 62.8763 211.294ZM58.2684 204.825C58.0853 204.825 57.8716 204.733 57.7496 204.55L55.4304 201.316C55.2167 201.041 55.3083 200.644 55.5829 200.431C55.8576 200.217 56.2543 200.309 56.4679 200.583L58.7871 203.818C59.0007 204.093 58.9092 204.489 58.6346 204.703C58.5125 204.795 58.3904 204.825 58.2684 204.825ZM53.6604 198.386C53.4773 198.386 53.2637 198.295 53.1416 198.111L52.6534 197.41C52.6229 197.349 52.5923 197.288 52.5618 197.227L51.6463 194.236C51.5548 193.9 51.7379 193.565 52.0736 193.443C52.4092 193.351 52.7449 193.534 52.867 193.87L53.752 196.769L54.1792 197.379C54.3928 197.654 54.3013 198.05 54.0266 198.264C53.9045 198.325 53.7825 198.386 53.6604 198.386ZM51.0971 190.879C50.8224 190.879 50.5783 190.696 50.4867 190.421L49.3271 186.607C49.2356 186.271 49.4187 185.936 49.7543 185.813C50.09 185.722 50.4257 185.905 50.5478 186.241L51.7074 190.055C51.7989 190.391 51.6158 190.727 51.2801 190.849C51.2191 190.879 51.1581 190.879 51.0971 190.879ZM48.7778 183.281C48.5032 183.281 48.259 183.098 48.1675 182.823L47.0079 179.008C46.9163 178.673 47.0994 178.337 47.4351 178.215C47.7708 178.123 48.1065 178.306 48.2285 178.642L49.3881 182.457C49.4797 182.792 49.2966 183.128 48.9609 183.25C48.8999 183.281 48.8389 183.281 48.7778 183.281ZM46.4891 175.682C46.2145 175.682 45.9703 175.499 45.8788 175.224L44.7192 171.41C44.6276 171.074 44.8107 170.738 45.1464 170.616C45.4821 170.525 45.8177 170.708 45.9398 171.044L47.0994 174.858C47.191 175.194 47.0079 175.529 46.6722 175.652C46.6112 175.682 46.5501 175.682 46.4891 175.682Z" fill="#3562FF"/>
<path d="M73.9231 230.398C73.74 230.398 73.5264 230.306 73.4044 230.123C73.1908 229.848 73.2823 229.452 73.5569 229.238L74.7471 228.384L73.8926 227.193C73.679 226.919 73.7706 226.522 74.0452 226.308C74.3199 226.095 74.7166 226.186 74.9302 226.461L76.1508 228.17C76.2424 228.292 76.2729 228.475 76.2729 228.628C76.2424 228.78 76.1508 228.933 76.0288 229.024L74.3199 230.245C74.1978 230.367 74.0757 230.398 73.9231 230.398Z" fill="#3562FF"/>
<path d="M67.0265 235.341C66.8434 235.341 66.6298 235.25 66.5077 235.067C66.2941 234.792 66.3857 234.395 66.6603 234.182L70.1086 231.71C70.3833 231.496 70.78 231.588 70.9936 231.862C71.2072 232.137 71.1157 232.534 70.841 232.747L67.3927 235.219C67.2706 235.311 67.1486 235.341 67.0265 235.341Z" fill="#3562FF"/>
<path d="M61.8387 239.034C61.6556 239.034 61.442 238.942 61.32 238.759C61.1063 238.484 61.1979 238.088 61.4725 237.874L63.1814 236.653C63.4561 236.44 63.8528 236.531 64.0664 236.806C64.28 237.081 64.1885 237.477 63.9138 237.691L62.2049 238.912C62.0829 239.003 61.9608 239.034 61.8387 239.034Z" fill="#3562FF"/>
<path d="M107.674 237.538V269.58C107.674 275.165 103.158 279.681 97.5732 279.681L22.9001 279.712C17.3156 279.712 12.7992 275.195 12.7687 269.611L12.7382 237.538H107.674Z" fill="#3562FF"/>
<path d="M98.3056 251.118H57.4139C55.4609 251.118 53.8435 249.531 53.8435 247.548C53.8435 245.595 55.4303 243.977 57.4139 243.977H98.3056C100.259 243.977 101.876 245.564 101.876 247.548C101.876 249.501 100.289 251.118 98.3056 251.118Z" fill="white"/>
<path d="M45.3905 252.278C45.3295 251.24 44.9328 250.386 44.1088 249.775C43.529 249.348 42.8577 249.135 42.1558 249.135C40.8131 249.135 39.1347 250.233 39.0432 252.278C36.1136 252.278 33.1535 252.278 30.1935 252.278C30.1629 251.24 29.7357 250.386 28.8813 249.745C28.3015 249.318 27.6606 249.104 26.9587 249.135C26.1043 249.165 25.3719 249.44 24.7616 250.05C24.1818 250.66 23.8461 251.362 23.8461 252.247C23.2968 252.095 22.8085 251.973 22.3203 251.82C22.2592 251.79 22.1982 251.698 22.1982 251.637C22.1982 250.172 22.1982 248.707 22.1982 247.243C22.1982 247.029 22.3203 246.785 22.4729 246.602C23.2052 245.625 24.2123 244.954 25.2498 244.344C26.44 243.672 27.6911 243.153 29.0644 242.97C29.4611 242.909 29.8273 242.909 30.224 242.909C31.4446 242.909 32.6958 242.94 33.9164 242.879C35.015 242.818 36.022 243.123 36.907 243.733C37.9141 244.435 38.8906 245.167 39.8671 245.93C40.1112 246.113 40.3554 246.205 40.63 246.236C42.2779 246.48 43.9257 246.785 45.4516 247.487C45.8788 247.7 46.2755 247.975 46.6722 248.28C46.9163 248.463 47.0384 248.768 47.0079 249.074C47.0079 249.897 47.0079 250.691 47.0079 251.515C47.0079 251.637 46.9774 251.728 46.8248 251.789C46.367 252.003 45.9093 252.156 45.3905 252.278ZM25.2193 246.266C27.2334 246.327 29.278 246.419 31.3226 246.48C31.3226 245.778 31.3226 245.137 31.3226 244.496C29.0338 244.252 27.0503 244.954 25.2193 246.266ZM32.8484 244.466C32.8484 245.198 32.8484 245.839 32.8484 246.541C34.6793 246.602 36.5103 246.663 38.3108 246.724C38.3108 246.693 38.3108 246.663 38.3108 246.663C38.0056 246.419 37.7004 246.144 37.3648 245.93C36.8155 245.564 36.2357 245.198 35.6559 244.862C34.8014 244.283 33.8249 244.527 32.8484 244.466Z" fill="white"/>
<path d="M27.0198 250.172C28.2099 250.172 29.1864 251.149 29.1864 252.339C29.1864 253.529 28.2099 254.505 27.0198 254.505C25.8296 254.505 24.8531 253.529 24.8531 252.339C24.8531 251.118 25.8296 250.172 27.0198 250.172Z" fill="white"/>
<path d="M42.2473 250.172C43.4375 250.172 44.3835 251.149 44.3835 252.339C44.3835 253.529 43.3764 254.505 42.2168 254.475C41.0267 254.444 40.0807 253.468 40.0807 252.308C40.0807 251.118 41.0572 250.172 42.2473 250.172Z" fill="white"/>
<path d="M99.4347 264.576H24.67C23.3273 264.576 22.2287 263.477 22.2287 262.134C22.2287 260.792 23.3273 259.693 24.67 259.693H99.4347C100.777 259.693 101.876 260.792 101.876 262.134C101.876 263.477 100.777 264.576 99.4347 264.576Z" fill="white"/>
<path d="M99.4347 273.425H24.67C23.3273 273.425 22.2287 272.327 22.2287 270.984C22.2287 269.641 23.3273 268.543 24.67 268.543H99.4347C100.777 268.543 101.876 269.641 101.876 270.984C101.876 272.327 100.777 273.425 99.4347 273.425Z" fill="white"/>
<path d="M52.7144 184.959L56.1932 196.982L62.2354 205.1L74.7776 196.189L52.7144 184.959Z" fill="#00B257"/>
<path d="M162.817 104.305C157.812 104.305 153.754 108.363 153.754 113.368C153.754 118.373 162.817 133.875 162.817 133.875C162.817 133.875 171.88 118.373 171.88 113.368C171.85 108.363 167.791 104.305 162.817 104.305ZM162.817 117.976C160.406 117.976 158.453 116.023 158.453 113.612C158.453 111.201 160.406 109.248 162.817 109.248C165.228 109.248 167.181 111.201 167.181 113.612C167.181 116.023 165.228 117.976 162.817 117.976Z" fill="white"/>
<path d="M267.182 89.6569C262.178 89.6569 258.119 93.7155 258.119 98.7202C258.119 103.725 267.182 119.227 267.182 119.227C267.182 119.227 276.246 103.725 276.246 98.7202C276.215 93.7155 272.156 89.6569 267.182 89.6569ZM267.182 103.328C264.771 103.328 262.818 101.375 262.818 98.9643C262.818 96.5535 264.771 94.6005 267.182 94.6005C269.593 94.6005 271.546 96.5535 271.546 98.9643C271.546 101.375 269.593 103.328 267.182 103.328Z" fill="white"/>
<path d="M73.4044 39C68.3997 39 64.3411 43.0587 64.3411 48.0633C64.3411 53.068 73.4044 68.5702 73.4044 68.5702C73.4044 68.5702 82.4677 53.068 82.4677 48.0633C82.4372 43.0587 78.3785 39 73.4044 39ZM73.4044 52.6713C70.9936 52.6713 69.0406 50.7182 69.0406 48.3074C69.0406 45.8967 70.9936 43.9436 73.4044 43.9436C75.8152 43.9436 77.7682 45.8967 77.7682 48.3074C77.7682 50.7182 75.8152 52.6713 73.4044 52.6713Z" fill="white"/>
</svg>
