<svg width="20" height="20" viewBox="0 0 20 20" fill="none" xmlns="http://www.w3.org/2000/svg">
<g clip-path="url(#clip0)">
<path d="M9.99999 20C8.02218 20 6.08878 19.4135 4.44429 18.3147C2.7998 17.2159 1.51807 15.6541 0.761194 13.8268C0.00431757 11.9996 -0.193716 9.98891 0.192136 8.0491C0.577989 6.10929 1.5304 4.32746 2.92892 2.92894C4.32745 1.53041 6.10928 0.578004 8.04909 0.192152C9.9889 -0.193701 11.9996 0.00433283 13.8268 0.761209C15.6541 1.51809 17.2159 2.79981 18.3147 4.4443C19.4135 6.08879 20 8.02219 20 10C19.9973 12.6513 18.9429 15.1933 17.0681 17.0681C15.1933 18.9429 12.6513 19.9973 9.99999 20ZM9.99999 1.69492C8.3574 1.69492 6.7517 2.182 5.38593 3.09458C4.02017 4.00715 2.95568 5.30423 2.32709 6.82179C1.6985 8.33934 1.53403 10.0092 1.85448 11.6202C2.17494 13.2313 2.96592 14.7111 4.12741 15.8726C5.28889 17.0341 6.76872 17.8251 8.37975 18.1455C9.99078 18.466 11.6607 18.3015 13.1782 17.6729C14.6958 17.0443 15.9928 15.9798 16.9054 14.6141C17.818 13.2483 18.3051 11.6426 18.3051 10C18.3024 7.79819 17.4265 5.68732 15.8696 4.1304C14.3127 2.57347 12.2018 1.69761 9.99999 1.69492Z" fill="#4F4F4F"/>
<path d="M12.6407 14.1526C12.4877 14.1539 12.337 14.1153 12.2034 14.0407L9.56272 12.5153C9.43662 12.4385 9.33256 12.3305 9.26068 12.2015C9.18879 12.0726 9.15154 11.9273 9.15255 11.7797V6.69493C9.15255 6.47017 9.24183 6.25462 9.40076 6.09569C9.55969 5.93676 9.77524 5.84747 10 5.84747C10.2248 5.84747 10.4403 5.93676 10.5992 6.09569C10.7582 6.25462 10.8475 6.47017 10.8475 6.69493V11.2915L13.0644 12.5695C13.2268 12.6624 13.3539 12.8064 13.4259 12.9791C13.4978 13.1518 13.5106 13.3435 13.4622 13.5242C13.4139 13.705 13.307 13.8646 13.1584 13.9783C13.0098 14.0919 12.8278 14.1532 12.6407 14.1526Z" fill="#4F4F4F"/>
</g>
<defs>
<clipPath id="clip0">
<rect width="20" height="20" fill="white"/>
</clipPath>
</defs>
</svg>
