<svg width="20" height="20" viewBox="0 0 20 20" fill="none" xmlns="http://www.w3.org/2000/svg">
<path d="M15.7627 6.44068H2.88136C2.11745 6.43978 1.38509 6.13592 0.84492 5.59576C0.304756 5.05559 0.000897133 4.32323 0 3.55932C0.000897495 2.61561 0.376185 1.7108 1.04349 1.04349C1.7108 0.376185 2.61561 0.000897495 3.55932 0L13.0508 0C13.9946 0.000897495 14.8994 0.376185 15.5667 1.04349C16.234 1.7108 16.6093 2.61561 16.6102 3.55932V5.59322C16.6102 5.81798 16.5209 6.03353 16.362 6.19246C16.203 6.35139 15.9875 6.44068 15.7627 6.44068ZM3.55932 1.69492C3.06513 1.69581 2.59143 1.89253 2.24198 2.24198C1.89253 2.59143 1.69581 3.06513 1.69492 3.55932C1.69492 3.87399 1.81991 4.17576 2.04242 4.39826C2.26492 4.62076 2.56669 4.74576 2.88136 4.74576H14.9153V3.55932C14.9144 3.06513 14.7176 2.59143 14.3682 2.24198C14.0187 1.89253 13.545 1.69581 13.0508 1.69492H3.55932Z" fill="#3F65FF"/>
<path d="M16.4407 20H3.55932C2.61561 19.9991 1.7108 19.6238 1.04349 18.9565C0.376185 18.2892 0.000897495 17.3844 0 16.4407L0 3.55931C0 3.33455 0.0892855 3.119 0.248215 2.96007C0.407144 2.80114 0.622698 2.71185 0.847458 2.71185C1.07222 2.71185 1.28777 2.80114 1.4467 2.96007C1.60563 3.119 1.69492 3.33455 1.69492 3.55931V16.4407C1.69581 16.9349 1.89253 17.4086 2.24198 17.758C2.59143 18.1075 3.06513 18.3042 3.55932 18.3051H16.4407C16.9349 18.3042 17.4086 18.1075 17.758 17.758C18.1075 17.4086 18.3042 16.9349 18.3051 16.4407V8.30507C18.3042 7.81088 18.1075 7.33718 17.758 6.98773C17.4086 6.63828 16.9349 6.44156 16.4407 6.44067H13.2475C13.0227 6.44067 12.8071 6.35138 12.6482 6.19245C12.4893 6.03352 12.4 5.81797 12.4 5.59321C12.4 5.36845 12.4893 5.15289 12.6482 4.99397C12.8071 4.83504 13.0227 4.74575 13.2475 4.74575H16.4407C17.3844 4.74665 18.2892 5.12194 18.9565 5.78924C19.6238 6.45655 19.9991 7.36136 20 8.30507V16.4407C19.9991 17.3844 19.6238 18.2892 18.9565 18.9565C18.2892 19.6238 17.3844 19.9991 16.4407 20Z" fill="#3F65FF"/>
<path d="M19.1525 15.9322H13.7288C12.7848 15.9322 11.8795 15.5572 11.212 14.8897C10.5445 14.2222 10.1695 13.3169 10.1695 12.3729C10.1695 11.4289 10.5445 10.5235 11.212 9.85604C11.8795 9.18854 12.7848 8.81354 13.7288 8.81354H19.1525C19.3773 8.81354 19.5929 8.90282 19.7518 9.06175C19.9107 9.22068 20 9.43624 20 9.661V15.0847C20 15.3095 19.9107 15.525 19.7518 15.684C19.5929 15.8429 19.3773 15.9322 19.1525 15.9322ZM13.7288 10.5085C13.2343 10.5085 12.7601 10.7049 12.4105 11.0545C12.0608 11.4042 11.8644 11.8784 11.8644 12.3729C11.8644 12.8673 12.0608 13.3415 12.4105 13.6912C12.7601 14.0408 13.2343 14.2373 13.7288 14.2373H18.3051V10.5085H13.7288Z" fill="#3F65FF"/>
<path d="M15.0847 13.3899C15.6464 13.3899 16.1017 12.9346 16.1017 12.3729C16.1017 11.8113 15.6464 11.356 15.0847 11.356C14.5231 11.356 14.0678 11.8113 14.0678 12.3729C14.0678 12.9346 14.5231 13.3899 15.0847 13.3899Z" fill="#3F65FF"/>
</svg>
