<svg width="137" height="137" viewBox="0 0 137 137" fill="none" xmlns="http://www.w3.org/2000/svg">
<path d="M83.2034 29.1929C83.2034 28.7112 83.0963 28.243 82.8956 27.8282C82.8689 27.7212 82.8555 27.6142 82.8288 27.5071L80.7015 22.2225L80.6881 22.1689C79.9389 19.948 78.882 17.8877 76.1928 17.8877H65.9044C63.1484 17.8877 62.1717 19.9882 61.4091 22.1556L59.1748 27.4536C58.8537 27.9754 58.6664 28.5641 58.6664 29.1929V30.8385C58.6664 31.0927 58.6932 31.3469 58.7601 31.5743C58.7066 31.7215 58.6664 31.8687 58.6664 32.0426V36.9393C58.6664 37.6617 59.2417 38.237 59.9642 38.237H62.6534C63.3758 38.237 63.9511 37.6617 63.9511 36.9393V34.4909H78.0659V36.9393C78.0659 37.6617 78.6412 38.237 79.3636 38.237H81.9056C82.6281 38.237 83.2034 37.6617 83.2034 36.9393V32.0426C83.2034 31.882 83.1766 31.7215 83.1097 31.5743C83.1632 31.3335 83.2034 31.0927 83.2034 30.8385V29.1929ZM62.9745 22.6907C63.8173 20.2959 64.4996 19.5601 65.8911 19.5601H76.1794C77.5441 19.5601 78.3067 20.3762 79.0827 22.6773L80.6346 25.8348C80.1262 25.6475 79.5643 25.5404 78.9756 25.5404H62.8808C62.3456 25.5404 61.8506 25.6207 61.3824 25.7813L62.9745 22.6907ZM64.3123 31.4673H61.476C60.9676 31.4673 60.5529 31.0525 60.5529 30.5441C60.5529 30.0357 60.9676 29.621 61.476 29.621H64.3123C64.8207 29.621 65.2355 30.0357 65.2355 30.5441C65.2489 31.0525 64.8341 31.4673 64.3123 31.4673ZM74.3599 31.28H67.7507C67.4296 31.28 67.1621 31.0124 67.1621 30.6913C67.1621 30.3702 67.4296 30.1026 67.7507 30.1026H74.3599C74.681 30.1026 74.9486 30.3702 74.9486 30.6913C74.9486 31.0124 74.681 31.28 74.3599 31.28ZM80.3269 31.4673H77.4906C76.9822 31.4673 76.5674 31.0525 76.5674 30.5441C76.5674 30.0357 76.9822 29.621 77.4906 29.621H80.3269C80.8353 29.621 81.25 30.0357 81.25 30.5441C81.25 31.0525 80.8353 31.4673 80.3269 31.4673Z" fill="white"/>
<path d="M30.4504 41.5282C35.8555 24.3095 51.9637 11.7735 70.9349 11.7735C89.9062 11.7735 106.014 24.2961 111.419 41.5282H118.31C112.704 20.5902 93.6122 5.09741 70.9349 5.09741C48.2577 5.09741 29.166 20.5768 23.5602 41.5148H30.4504V41.5282Z" fill="#C84321"/>
<path d="M89.1302 99.8201L70.9349 123.14L52.7262 99.8201H44.2574L68.2993 130.618C68.9281 131.434 69.9048 131.903 70.9349 131.903C71.9651 131.903 72.9284 131.434 73.5706 130.618L97.5991 99.8201H89.1302Z" fill="#C84321"/>
<path d="M57.5293 83.083C57.342 83.0964 57.1145 83.1366 56.8603 83.2168C56.6061 83.2837 56.3386 83.3908 56.0576 83.5379C55.7766 83.6851 55.5224 83.8858 55.2816 84.14C55.0408 84.3942 54.8535 84.7153 54.7063 85.0899C54.5592 85.4645 54.4789 85.9327 54.4789 86.4813V87.2706H61.3289V83.0563H57.9039C57.8504 83.0563 57.73 83.0697 57.5293 83.083Z" fill="white"/>
<path d="M15.7068 74.7614V95.4719H126.163V74.7614H15.7068ZM61.369 76.8752L62.1985 78.6948L58.2919 80.0995L57.7701 78.9757L61.369 76.8752ZM45.8361 87.4579H39.6818V85.4912H45.8361V87.4579ZM46.7057 83.0563H38.9058V91.8462H36.9525V82.0796C36.9525 81.9458 36.9793 81.8254 37.0328 81.705C37.0863 81.5846 37.1532 81.4776 37.2335 81.3839C37.3271 81.2903 37.4208 81.2234 37.5412 81.1699C37.6616 81.1163 37.7954 81.0896 37.9292 81.0896H46.7057V83.0563ZM63.2822 91.8462H61.3289V89.2106H54.4789V91.8462H52.5256V86.4813C52.5256 85.6919 52.6594 84.9695 52.9269 84.3139C53.1945 83.6583 53.5691 83.083 54.0508 82.6148C54.5324 82.1331 55.0943 81.7719 55.7499 81.5043C56.4055 81.2367 57.1145 81.103 57.8905 81.103H62.2788C62.4126 81.103 62.5464 81.1297 62.6668 81.1832C62.7872 81.2367 62.8942 81.3036 62.9879 81.3973C63.0815 81.491 63.1484 81.598 63.2019 81.7184C63.2555 81.8388 63.2822 81.9726 63.2822 82.093V91.8462ZM79.765 83.0563H72.7411C72.4869 83.0563 72.2862 83.1232 72.1524 83.257C72.0186 83.3908 71.9517 83.5914 71.9517 83.859V89.1169C71.9517 89.3711 72.0186 89.5584 72.1524 89.6922C72.2862 89.826 72.4869 89.8929 72.7277 89.8929H79.7516V91.8462H72.7277C72.5538 91.8462 72.3531 91.8195 72.1524 91.7793C71.9384 91.7392 71.7377 91.6723 71.537 91.5786C71.3363 91.485 71.1356 91.378 70.9617 91.2308C70.7744 91.0836 70.6139 90.9097 70.4667 90.709C70.3195 90.5083 70.2125 90.2675 70.1322 89.9999C70.0519 89.7324 69.9984 89.4246 69.9984 89.1035V83.8323C69.9984 83.6583 70.0252 83.4576 70.0653 83.257C70.1055 83.0563 70.1724 82.8422 70.266 82.6415C70.3597 82.4409 70.4667 82.2402 70.6138 82.0662C70.761 81.8923 70.935 81.7184 71.1356 81.5712C71.3363 81.4241 71.5638 81.317 71.8313 81.2367C72.0989 81.1565 72.3932 81.103 72.7277 81.103H79.7516V83.0563H79.765ZM88.167 91.8462H86.2137V81.103H88.167V91.8462ZM104.917 91.8462H96.0338C95.8866 91.8462 95.7662 91.8195 95.6458 91.766C95.5254 91.7124 95.4183 91.6455 95.3381 91.5653C95.2578 91.485 95.1775 91.378 95.1374 91.2576C95.0839 91.1371 95.0705 91.0034 95.0705 90.8696V81.1163H96.9971V89.9063H104.917V91.8462Z" fill="white"/>
<path d="M32.4304 47.4684C32.591 47.843 32.6445 48.2444 32.5776 48.6725C32.5107 49.0872 32.3368 49.4485 32.0558 49.7428L18.0347 65.3694H32.3903V69.6105H13.2451C12.8304 69.6105 12.4424 69.4901 12.0945 69.2626C11.7333 69.0218 11.4791 68.7141 11.3052 68.3395C11.1179 67.9649 11.0643 67.5635 11.1312 67.1487C11.1981 66.734 11.3721 66.3728 11.653 66.0651L25.7009 50.4251H11.3052V46.184H30.4905C30.9053 46.184 31.2932 46.3044 31.6411 46.5319C31.9889 46.7727 32.2565 47.0804 32.4304 47.4684Z" fill="white"/>
<path d="M63.9244 60.1382C63.9244 61.5697 63.6836 62.8809 63.1886 64.0716C62.6935 65.2757 62.0112 66.3059 61.1416 67.1755C60.2719 68.0451 59.2418 68.7275 58.0511 69.2091C56.8603 69.6907 55.5626 69.9316 54.1578 69.9316H48.4049C47.0001 69.9316 45.7023 69.6907 44.4982 69.2091C43.3075 68.7275 42.2639 68.0451 41.3943 67.1755C40.5247 66.3059 39.8424 65.2757 39.3473 64.0716C38.8523 62.8809 38.5981 61.5564 38.5981 60.1382V55.6697C38.5981 54.2515 38.8389 52.9404 39.3473 51.7363C39.8424 50.5322 40.5247 49.502 41.3943 48.6323C42.2639 47.7627 43.2941 47.0938 44.4982 46.5988C45.7023 46.1037 47.0001 45.8629 48.4049 45.8629H54.1578C55.5626 45.8629 56.8603 46.1037 58.0511 46.5988C59.2418 47.0938 60.2719 47.7627 61.1416 48.6323C62.0112 49.502 62.6935 50.5322 63.1886 51.7363C63.6836 52.9404 63.9244 54.2515 63.9244 55.6697V60.1382ZM59.6699 55.6697C59.6699 54.8268 59.5361 54.0776 59.2685 53.3952C59.001 52.7129 58.6264 52.1242 58.1447 51.6426C57.6631 51.161 57.0744 50.7864 56.3921 50.5188C55.7097 50.2512 54.9605 50.1174 54.1444 50.1174H48.3915C47.562 50.1174 46.8128 50.2512 46.1304 50.5188C45.4481 50.7864 44.8595 51.161 44.3778 51.6426C43.8828 52.1242 43.5082 52.7129 43.2406 53.3952C42.973 54.0776 42.8392 54.8402 42.8392 55.6697V60.1382C42.8392 60.9811 42.973 61.7303 43.2406 62.4126C43.5082 63.0949 43.8828 63.6702 44.3778 64.1653C44.8728 64.6469 45.4481 65.0215 46.1304 65.2891C46.8128 65.5567 47.562 65.6904 48.3915 65.6904H54.1043C54.9338 65.6904 55.683 65.5567 56.3653 65.2891C57.0476 65.0215 57.6363 64.6469 58.1179 64.1653C58.613 63.6836 58.9876 63.0949 59.2552 62.4126C59.5227 61.7303 59.6565 60.9677 59.6565 60.1382V55.6697H59.6699Z" fill="white"/>
<path d="M94.8698 67.8043C94.8698 68.112 94.8163 68.393 94.6959 68.6472C94.5755 68.9014 94.4283 69.1288 94.241 69.3295C94.0537 69.5168 93.8262 69.664 93.5587 69.7844C93.3045 69.8914 93.0235 69.9449 92.7292 69.9449C92.475 69.9449 92.2074 69.8914 91.9398 69.7978C91.6722 69.7041 91.4314 69.5436 91.2307 69.3295L75.7112 53.1143V69.6105H71.4701V48.0035C71.4701 47.562 71.5905 47.1741 71.8313 46.8128C72.0721 46.465 72.3932 46.1974 72.7678 46.0235C73.1692 45.8629 73.584 45.8228 74.0121 45.9031C74.4402 45.9833 74.8014 46.184 75.1092 46.5051L90.6287 62.6936V46.1974H94.8832V67.8043H94.8698Z" fill="white"/>
<path d="M126.136 69.6238H121.895V63.8709H106.964V69.6238H102.71V57.9173C102.71 56.2048 103.004 54.6395 103.593 53.1946C104.182 51.763 104.998 50.5188 106.041 49.4886C107.085 48.4584 108.329 47.6423 109.747 47.067C111.179 46.4917 112.731 46.1974 114.416 46.1974H123.982C124.277 46.1974 124.558 46.2509 124.812 46.3579C125.079 46.465 125.307 46.6255 125.507 46.8128C125.695 47.0135 125.855 47.2409 125.962 47.4951C126.069 47.7493 126.123 48.0303 126.123 48.3246V69.6238H126.136ZM121.895 59.6164V50.4385H114.43C114.296 50.4385 114.028 50.4519 113.6 50.492C113.186 50.5322 112.69 50.6258 112.142 50.773C111.593 50.9201 111.018 51.161 110.403 51.4821C109.787 51.8031 109.239 52.2313 108.717 52.7932C108.209 53.3417 107.78 54.0374 107.446 54.8803C107.111 55.7098 106.951 56.7266 106.951 57.9173V59.6164H121.895Z" fill="white"/>
</svg>
