<svg width="206" height="206" viewBox="0 0 206 206" fill="none" xmlns="http://www.w3.org/2000/svg">
<circle cx="103" cy="103" r="103" fill="#6685FF" fill-opacity="0.4"/>
<g filter="url(#filter0_d)">
<circle cx="103.482" cy="103.482" r="31.4816" fill="#3F65FF"/>
</g>
<g clip-path="url(#clip0)">
<path d="M103.23 123.975C102.84 123.975 102.461 123.851 102.148 123.62C101.528 123.157 87 112.237 87 98.0076C87 93.7621 88.71 89.6905 91.7538 86.6885C94.7976 83.6865 98.9259 82 103.23 82C107.535 82 111.663 83.6865 114.707 86.6885C117.751 89.6905 119.461 93.7621 119.461 98.0076C119.461 112.237 104.933 123.157 104.313 123.62C104 123.851 103.621 123.975 103.23 123.975ZM103.23 85.5572C99.8836 85.561 96.675 86.8739 94.3084 89.208C91.9418 91.5421 90.6106 94.7067 90.6068 98.0076C90.6068 108.324 99.9844 117.16 103.23 119.899C106.477 117.16 115.854 108.324 115.854 98.0076C115.85 94.7067 114.519 91.5421 112.153 89.208C109.786 86.8739 106.577 85.561 103.23 85.5572Z" fill="white"/>
<path d="M103.231 104.766C101.875 104.766 100.55 104.37 99.4232 103.627C98.2963 102.885 97.4179 101.829 96.8993 100.594C96.3806 99.359 96.2449 98.0001 96.5093 96.689C96.7737 95.3779 97.4264 94.1736 98.3848 93.2284C99.3432 92.2832 100.564 91.6395 101.894 91.3787C103.223 91.1179 104.601 91.2517 105.853 91.7633C107.105 92.2749 108.175 93.1411 108.928 94.2526C109.681 95.3641 110.083 96.6708 110.083 98.0076C110.081 99.7995 109.359 101.518 108.074 102.785C106.789 104.052 105.047 104.764 103.231 104.766ZM103.231 94.8061C102.588 94.8061 101.961 94.9938 101.427 95.3456C100.893 95.6974 100.477 96.1974 100.231 96.7824C99.9858 97.3674 99.9215 98.0111 100.047 98.6322C100.172 99.2532 100.481 99.8236 100.935 100.271C101.389 100.719 101.968 101.024 102.597 101.148C103.227 101.271 103.88 101.208 104.473 100.965C105.066 100.723 105.573 100.313 105.93 99.7862C106.286 99.2598 106.477 98.6408 106.477 98.0076C106.475 97.1591 106.132 96.3458 105.524 95.7458C104.915 95.1458 104.091 94.8079 103.231 94.8061Z" fill="white"/>
</g>
<defs>
<filter id="filter0_d" x="68" y="72" width="70.9631" height="70.9631" filterUnits="userSpaceOnUse" color-interpolation-filters="sRGB">
<feFlood flood-opacity="0" result="BackgroundImageFix"/>
<feColorMatrix in="SourceAlpha" type="matrix" values="0 0 0 0 0 0 0 0 0 0 0 0 0 0 0 0 0 0 127 0"/>
<feOffset dy="4"/>
<feGaussianBlur stdDeviation="2"/>
<feColorMatrix type="matrix" values="0 0 0 0 0 0 0 0 0 0 0 0 0 0 0 0 0 0 0.25 0"/>
<feBlend mode="normal" in2="BackgroundImageFix" result="effect1_dropShadow"/>
<feBlend mode="normal" in="SourceGraphic" in2="effect1_dropShadow" result="shape"/>
</filter>
<clipPath id="clip0">
<rect width="32.461" height="41.9754" fill="white" transform="translate(87 82)"/>
</clipPath>
</defs>
</svg>
