<?xml version="1.0" encoding="utf-8"?>
<!-- Generator: Adobe Illustrator 21.1.0, SVG Export Plug-In . SVG Version: 6.00 Build 0)  -->
<svg version="1.1" id="Camada_1" xmlns="http://www.w3.org/2000/svg" xmlns:xlink="http://www.w3.org/1999/xlink" x="0px" y="0px"
	 viewBox="0 0 128 128" style="enable-background:new 0 0 128 128;" xml:space="preserve">
<g>
	<path d="M121.6,8.5h-14.9V2.1c0-1.2-1-2.1-2.1-2.1H89.6c-1.2,0-2.1,1-2.1,2.1v6.4H40.5V2.1C40.5,1,39.6,0,38.4,0H23.5
		c-1.2,0-2.1,1-2.1,2.1v6.4H6.4c-1.2,0-2.1,1-2.1,2.1v115.2c0,1.2,0.9,2.1,2.1,2.1h115.2c1.2,0,2.1-1,2.1-2.1V10.7
		C123.7,9.5,122.8,8.5,121.6,8.5L121.6,8.5z M91.7,4.3h10.7v12.8H91.7V4.3z M25.6,4.3h10.7v12.8H25.6V4.3z M8.5,12.8h12.8v6.4
		c0,1.2,1,2.1,2.1,2.1h14.9c1.2,0,2.1-1,2.1-2.1v-6.4h46.9v6.4c0,1.2,0.9,2.1,2.1,2.1h14.9c1.2,0,2.1-1,2.1-2.1v-6.4h12.8V32H8.5
		V12.8z M8.5,123.7V36.3h110.9v87.5H8.5z M8.5,123.7"/>
	<path d="M81.1,49.1H23.5v61.9h81.1V49.1H81.1z M66.1,53.3h14.9v14.9H66.1V53.3z M81.1,87.5H66.1V72.5h14.9V87.5z M46.9,72.5h14.9
		v14.9H46.9V72.5z M46.9,53.3h14.9v14.9H46.9V53.3z M27.7,53.3h14.9v14.9H27.7V53.3z M27.7,72.5h14.9v14.9H27.7V72.5z M42.7,106.7
		H27.7V91.7h14.9V106.7z M61.9,106.7H46.9V91.7h14.9V106.7z M81.1,106.7H66.1V91.7h14.9V106.7z M100.3,106.7H85.3V91.7h14.9V106.7z
		 M100.3,87.5H85.3V72.5h14.9V87.5z M100.3,53.3v14.9H85.3V53.3H100.3z M100.3,53.3"/>
</g>
</svg>
