<?xml version="1.0" encoding="utf-8"?>
<!-- Generator: Adobe Illustrator 21.1.0, SVG Export Plug-In . SVG Version: 6.00 Build 0)  -->
<svg version="1.1" id="Camada_1" xmlns="http://www.w3.org/2000/svg" xmlns:xlink="http://www.w3.org/1999/xlink" x="0px" y="0px"
	 viewBox="0 0 128 128" style="enable-background:new 0 0 128 128;" xml:space="preserve">
<path d="M117.9,20.4c-6.7-6.9-15.7-10.7-25.4-10.7c-9.5,0-18.4,3.7-25.1,10.4L64,23.6l-3.5-3.5C53.8,13.4,44.9,9.7,35.5,9.7
	c-9.5,0-18.4,3.7-25.1,10.4C3.7,26.8,0,35.7,0,45.2c0,9.5,3.7,18.4,10.4,25.1l44.3,44.3c2.6,2.6,5.9,3.8,9.3,3.8
	c3.4,0,6.7-1.3,9.3-3.8l44-44C131.2,56.7,131.4,34.2,117.9,20.4L117.9,20.4z M112.7,65.9"/>
</svg>
