<?xml version="1.0" encoding="utf-8"?>
<!-- Generator: Adobe Illustrator 21.1.0, SVG Export Plug-In . SVG Version: 6.00 Build 0)  -->
<svg version="1.1" id="Camada_1" xmlns="http://www.w3.org/2000/svg" xmlns:xlink="http://www.w3.org/1999/xlink" x="0px" y="0px"
	 viewBox="0 0 128 128" style="enable-background:new 0 0 128 128;" xml:space="preserve">
<path d="M117.9,20.4c-6.7-6.9-15.7-10.7-25.4-10.7c-9.5,0-18.4,3.7-25.1,10.4L64,23.6l-3.5-3.5C53.8,13.4,44.9,9.7,35.5,9.7
	c-9.5,0-18.4,3.7-25.1,10.4C3.7,26.8,0,35.7,0,45.2c0,9.5,3.7,18.4,10.4,25.1l44.3,44.3c2.6,2.6,5.9,3.8,9.3,3.8
	c3.4,0,6.7-1.3,9.3-3.8l44-44C131.2,56.7,131.4,34.2,117.9,20.4L117.9,20.4z M112.7,65.9l-44,44c-2.6,2.6-6.7,2.6-9.3,0L15,65.6
	c-5.5-5.5-8.5-12.7-8.5-20.4c0-7.7,3-15,8.5-20.4c5.5-5.5,12.7-8.5,20.4-8.5c7.7,0,15,3,20.4,8.5l3.5,3.5l-5.3,5.3
	c-1.3,1.3-1.3,3.4,0,4.6c0.6,0.6,1.5,1,2.3,1c0.8,0,1.7-0.3,2.3-1l13.4-13.4c5.5-5.5,12.7-8.5,20.4-8.5c7.8,0,15.2,3.1,20.7,8.7
	C124.2,36.2,124,54.6,112.7,65.9L112.7,65.9z M112.7,65.9"/>
</svg>
