<?xml version="1.0" encoding="utf-8"?>
<!-- Generator: Adobe Illustrator 21.1.0, SVG Export Plug-In . SVG Version: 6.00 Build 0)  -->
<svg version="1.1" id="Camada_1" xmlns="http://www.w3.org/2000/svg" xmlns:xlink="http://www.w3.org/1999/xlink" x="0px" y="0px"
	 viewBox="0 0 128 128" style="enable-background:new 0 0 128 128;" xml:space="preserve">
<path d="M117.4,96.8L97,86.6c-1.9-1-3.1-2.9-3.1-5.1v-7.2c0.5-0.6,1-1.3,1.5-2c2.6-3.7,4.8-7.9,6.3-12.4c3-1.4,5-4.4,5-7.7v-8.5
	c0-2.1-0.8-4-2.1-5.6V26.8c0.1-1.2,0.6-8.2-4.5-13.9c-4.4-5-11.5-7.5-21.1-7.5c-9.6,0-16.8,2.5-21.1,7.5c-3.1,3.5-4.1,7.4-4.4,10.3
	c-3.7-1.9-8-2.8-12.9-2.8c-22.2,0-23.4,18.9-23.5,19.2v9.8c-1.4,1.5-2.1,3.2-2.1,5v7.4c0,2.3,1,4.4,2.8,5.9
	c1.8,6.6,6.1,11.7,7.8,13.4v5.8c0,1.7-0.9,3.2-2.5,4.1L8.8,99.7c-5.4,3-8.8,8.7-8.8,14.8v8.1h128V114
	C128,106.7,123.9,100.1,117.4,96.8L117.4,96.8z M29.9,113.6v4.8H4.3v-3.8c0-4.6,2.5-8.9,6.7-11.2l14.2-8.9c2.8-1.6,4.6-4.5,4.6-7.8
	v-7.7l-0.7-0.6c-0.1-0.1-5.7-5.4-7.4-12.7l-0.2-0.9l-0.7-0.5c-1-0.6-1.6-1.7-1.6-2.8v-7.4c0-0.8,0.5-1.7,1.4-2.5l0.7-0.6V39.6
	c0-0.6,1.1-15.1,19.2-15.1c5.1,0,9.4,1.2,12.8,3.5v10.1c-1.4,1.6-2.1,3.5-2.1,5.6v8.5c0,0.6,0.1,1.3,0.2,1.9
	c0.1,0.3,0.2,0.5,0.3,0.7c0.1,0.4,0.2,0.7,0.4,1.1c0,0,0,0,0,0c0.5,1.1,1.3,2.1,2.3,2.9c0,0,0,0.1,0,0.1c0.1,0.5,0.3,1,0.4,1.5
	L55,61c0,0.1,0.1,0.2,0.1,0.3c0.1,0.2,0.1,0.5,0.2,0.7c0.1,0.4,0.3,0.8,0.4,1.2c0.1,0.2,0.1,0.3,0.2,0.5c0.2,0.4,0.3,0.9,0.5,1.3
	c0,0.1,0.1,0.2,0.1,0.3l0.1,0.3c0.1,0.1,0.1,0.2,0.2,0.4c0.2,0.5,0.4,0.9,0.6,1.3c0,0.1,0.1,0.1,0.1,0.2c0.1,0.3,0.3,0.5,0.4,0.8
	c0.2,0.4,0.5,0.9,0.7,1.3c0.1,0.2,0.2,0.4,0.3,0.6c0.3,0.5,0.6,1,0.9,1.4c0.1,0.1,0.1,0.2,0.2,0.3c0.5,0.8,1,1.4,1.3,2
	c0.1,0.1,0.2,0.3,0.3,0.4c0.1,0.1,0.1,0.2,0.2,0.2v7.1c0,2.1-1.1,4-2.9,4.9l-5.6,3.1l-1-0.1l-0.4,0.8l-12,6.6
	C33.7,100.1,29.9,106.6,29.9,113.6L29.9,113.6z M123.7,118.4H34.1v-4.8c0-5.5,3-10.5,7.8-13.1l19-10.4c3.2-1.7,5.2-5.1,5.2-8.7v-8.6
	l-0.4-0.5l-0.1-0.1c0,0-0.1-0.2-0.4-0.4c0,0,0,0,0-0.1c-0.1-0.1-0.3-0.3-0.4-0.5c0,0,0,0,0,0c-0.3-0.4-0.7-1-1.2-1.7c0,0,0,0,0,0
	c-0.2-0.3-0.4-0.7-0.7-1.1c0,0,0-0.1-0.1-0.1c-0.5-0.8-1-1.7-1.5-2.7c0,0,0,0,0,0c-0.3-0.5-0.5-1.1-0.8-1.7c0-0.1-0.1-0.2-0.1-0.3
	c-0.1-0.3-0.2-0.5-0.4-0.8c0-0.1-0.1-0.2-0.1-0.3c-0.1-0.3-0.2-0.6-0.3-0.9c-0.2-0.6-0.4-1.2-0.6-1.8L59,59.4c0-0.1,0-0.1,0-0.1
	c-0.2-0.7-0.4-1.4-0.6-2.1l-0.2-0.8l-0.7-0.5c-1.2-0.8-2-2.1-2-3.6v-8.5c0-1.2,0.5-2.3,1.4-3.1l0.7-0.6v-14l-0.1-0.1
	c-0.1-1.5,0-6.3,3.5-10.2c3.5-4,9.6-6.1,17.9-6.1c8.3,0,14.3,2,17.9,6c4.2,4.7,3.5,10.7,3.5,10.8l0,13.6l0.7,0.6
	c0.9,0.8,1.4,1.9,1.4,3.1v8.5c0,1.9-1.2,3.5-3,4.1l-1.1,0.3L98,57.7c-1.4,4.4-3.5,8.5-6,12.2c-0.6,0.9-1.3,1.7-1.8,2.3l-0.5,0.6v8.8
	c0,3.8,2.1,7.2,5.5,8.9l20.4,10.2c5.1,2.6,8.3,7.7,8.3,13.4V118.4z M123.7,118.4"/>
</svg>
