<?xml version="1.0" encoding="utf-8"?>
<!-- Generator: Adobe Illustrator 21.1.0, SVG Export Plug-In . SVG Version: 6.00 Build 0)  -->
<svg version="1.1" id="Camada_1" xmlns="http://www.w3.org/2000/svg" xmlns:xlink="http://www.w3.org/1999/xlink" x="0px" y="0px"
	 viewBox="0 0 128 128" style="enable-background:new 0 0 128 128;" xml:space="preserve">
<g>
	<path d="M70.4,8.6H57.6c-5.9,0-10.7,4.8-10.7,10.7c0,1.2,1,2.1,2.1,2.1c1.2,0,2.1-1,2.1-2.1c0-3.5,2.9-6.4,6.4-6.4h12.8
		c3.5,0,6.4,2.9,6.4,6.4c0,1.2,1,2.1,2.1,2.1c1.2,0,2.1-1,2.1-2.1C81.1,13.4,76.3,8.6,70.4,8.6L70.4,8.6z M70.4,8.6"/>
	<path d="M117.3,25.6H10.7c-5.9,0-10.7,4.8-10.7,10.7v12.8c0,2.9,1.7,5.2,4.3,6.1v62.2c0,5.9,4.8,10.7,10.7,10.7H113
		c5.9,0,10.7-4.8,10.7-10.7V61.9c0-1.2-1-2.1-2.1-2.1c-1.2,0-2.1,1-2.1,2.1v55.4c0,3.5-2.9,6.4-6.4,6.4H15c-3.5,0-6.4-2.9-6.4-6.4
		v-64c0-1.2-1-2.1-2.1-2.1c-1.3,0-2.1-0.8-2.1-2.1V36.3c0-3.5,2.9-6.4,6.4-6.4h106.6c3.5,0,6.4,2.9,6.4,6.4v12.8
		c0,1.3-0.8,2.1-2.1,2.1h-10.7v-8.5c0-2.4-1.9-4.3-4.3-4.3h-4.3c-2.4,0-4.3,1.9-4.3,4.3v8.5H29.9v-8.5c0-2.4-1.9-4.3-4.3-4.3h-4.3
		c-2.4,0-4.3,1.9-4.3,4.3v8.5h-2c-1.2,0-2.1,1-2.1,2.1c0,1.2,1,2.1,2.1,2.1h4.2c1.2,0,2.1-1,2.1-2.1V42.7h4.3v10.7
		c0,1.2,1,2.1,2.1,2.1h72.5c1.2,0,2.1-1,2.1-2.1V42.7h4.3v10.7c0,1.2,1,2.1,2.1,2.1h12.8c3.6,0,6.4-2.7,6.4-6.4V36.3
		C128,30.4,123.2,25.6,117.3,25.6L117.3,25.6z M117.3,25.6"/>
	<path d="M40.6,21.4c1.2,0,2.1-1,2.1-2.1c0-7.7,7.3-14.9,14.9-14.9h12.8c7.8,0,14.9,7.1,14.9,14.9c0,1.2,1,2.1,2.1,2.1
		c1.2,0,2.1-1,2.1-2.1C89.6,9,80.6,0,70.4,0H57.6c-10,0-19.2,9.1-19.2,19.2C38.4,20.4,39.4,21.4,40.6,21.4L40.6,21.4z M40.6,21.4"/>
	<path d="M57.6,110.9h12.8c1.2,0,2.1-1,2.1-2.1V98.1h10.7c1.2,0,2.1-1,2.1-2.1V83.2c0-1.2-1-2.1-2.1-2.1H72.5V70.4
		c0-1.2-1-2.1-2.1-2.1H57.6c-1.2,0-2.1,1-2.1,2.1v10.7H44.8c-1.2,0-2.1,1-2.1,2.1V96c0,1.2,1,2.1,2.1,2.1h10.7v10.7
		C55.5,109.9,56.4,110.9,57.6,110.9L57.6,110.9z M46.9,93.8v-8.5h10.7c1.2,0,2.1-1,2.1-2.1V72.5h8.5v10.7c0,1.2,1,2.1,2.1,2.1h10.7
		v8.5H70.4c-1.2,0-2.1,1-2.1,2.1v10.7h-8.5V96c0-1.2-1-2.1-2.1-2.1H46.9z M46.9,93.8"/>
	<path d="M100.2,59.7c-1.2,0-2.1,1-2.1,2.1V64c0,2.4,1.9,4.3,4.3,4.3h4.3c2.4,0,4.3-1.9,4.3-4.3v-2.1c0-1.2-1-2.1-2.1-2.1
		c-1.2,0-2.1,1-2.1,2.1V64h-4.3v-2.1C102.4,60.7,101.4,59.7,100.2,59.7L100.2,59.7z M100.2,59.7"/>
	<path d="M19.2,59.7c-1.2,0-2.1,1-2.1,2.1V64c0,2.4,1.9,4.3,4.3,4.3h4.3c2.4,0,4.3-1.9,4.3-4.3v-2.1c0-1.2-1-2.1-2.1-2.1
		c-1.2,0-2.1,1-2.1,2.1V64h-4.3v-2.1C21.4,60.7,20.4,59.7,19.2,59.7L19.2,59.7z M19.2,59.7"/>
</g>
</svg>
