<?xml version="1.0" encoding="utf-8"?>
<!-- Generator: Adobe Illustrator 21.1.0, SVG Export Plug-In . SVG Version: 6.00 Build 0)  -->
<svg version="1.1" id="Camada_1" xmlns="http://www.w3.org/2000/svg" xmlns:xlink="http://www.w3.org/1999/xlink" x="0px" y="0px"
	 viewBox="0 0 128 128" style="enable-background:new 0 0 128 128;" xml:space="preserve">
<style type="text/css">
	.st0{fill:none;stroke:#000000;stroke-width:4;stroke-miterlimit:10;}
</style>
<path class="st0" d="M123.3,57.9c2.4-2.4,3.3-5.9,2.2-9.1c-1.1-3.2-3.8-5.5-7.2-6l-29.9-4.4c-1.3-0.2-2.4-1-2.9-2.1L72.1,9.1
	c-1.5-3-4.6-4.9-8-4.9c-3.4,0-6.4,1.9-8,4.9L42.8,36.3c-0.6,1.2-1.7,2-2.9,2.1L10,42.8c-3.4,0.5-6.1,2.8-7.2,6
	c-1,3.2-0.2,6.7,2.2,9.1L26.7,79c0.9,0.9,1.3,2.2,1.1,3.5l-5.1,29.8c-0.4,2.6,0.2,5.2,1.9,7.2c2.6,3.1,7.3,4.1,10.9,2.2l26.8-14.1
	c1.1-0.6,2.5-0.6,3.6,0l26.8,14.1c1.3,0.7,2.7,1,4.1,1c2.6,0,5.1-1.2,6.8-3.2c1.7-2,2.4-4.6,1.9-7.2l-5.1-29.8
	c-0.2-1.3,0.2-2.6,1.1-3.5L123.3,57.9z M123.3,57.9"/>
</svg>
