<?xml version="1.0" encoding="utf-8"?>
<!-- Generator: Adobe Illustrator 21.1.0, SVG Export Plug-In . SVG Version: 6.00 Build 0)  -->
<svg version="1.1" id="Camada_1" xmlns="http://www.w3.org/2000/svg" xmlns:xlink="http://www.w3.org/1999/xlink" x="0px" y="0px"
	 viewBox="0 0 128 128" style="enable-background:new 0 0 128 128;" xml:space="preserve">
<g>
	<path d="M64,55.5c8.2,0,14.9-6.7,14.9-14.9c0-8.2-6.7-14.9-14.9-14.9s-14.9,6.7-14.9,14.9C49.1,48.8,55.8,55.5,64,55.5L64,55.5z
		 M64,29.9c5.9,0,10.7,4.8,10.7,10.7c0,5.9-4.8,10.7-10.7,10.7c-5.9,0-10.7-4.8-10.7-10.7C53.3,34.7,58.1,29.9,64,29.9L64,29.9z
		 M64,29.9"/>
	<path d="M63.6,116.8l32.7-47.3c12.3-16.4,10.5-43.3-3.8-57.6c-7.7-7.7-18-12-28.9-12C52.7,0,42.4,4.3,34.7,12
		c-14.3,14.3-16.1,41.2-3.9,57.5L63.6,116.8z M37.7,15C44.6,8.1,53.8,4.3,63.6,4.3c9.8,0,19,3.8,25.9,10.7
		c12.9,12.9,14.5,37.2,3.4,52.1l-29.3,42.3L34.3,67C23.2,52.2,24.8,27.9,37.7,15L37.7,15z M37.7,15"/>
	<path d="M89.9,91.7c-1.2-0.1-2.2,0.7-2.4,1.9c-0.1,1.2,0.7,2.2,1.9,2.4c22.4,2.6,34.4,9.7,34.4,13.9c0,5.8-22.7,13.9-59.7,13.9
		c-37,0-59.7-8.1-59.7-13.9c0-4.1,11.9-11.2,34.4-13.9c1.2-0.1,2-1.2,1.9-2.4c-0.1-1.2-1.2-2-2.4-1.9C15.7,94.4,0,101.8,0,109.9
		c0,9,22,18.1,64,18.1s64-9.1,64-18.1C128,101.8,112.3,94.4,89.9,91.7L89.9,91.7z M89.9,91.7"/>
</g>
</svg>
