<?xml version="1.0" encoding="utf-8"?>
<!-- Generator: Adobe Illustrator 21.1.0, SVG Export Plug-In . SVG Version: 6.00 Build 0)  -->
<svg version="1.1" id="Camada_1" xmlns="http://www.w3.org/2000/svg" xmlns:xlink="http://www.w3.org/1999/xlink" x="0px" y="0px"
	 viewBox="0 0 128 128" style="enable-background:new 0 0 128 128;" xml:space="preserve">
<g>
	<path d="M111.7,16.3c-17.1-17.1-45-17.1-62.1,0c-8.3,8.3-12.9,19.3-12.9,31c0,10.7,3.8,20.8,10.7,28.8l-5.2,5.2L36.9,76
		c-0.6-0.6-1.4-0.9-2.2-0.9c-0.8,0-1.6,0.3-2.2,0.9l-25,25c-2.6,2.6-4,6.1-4,9.7c0,3.7,1.4,7.1,4,9.7c2.6,2.6,6.1,4,9.7,4
		c3.7,0,7.1-1.4,9.7-4l25-25c0.6-0.6,0.9-1.4,0.9-2.2c0-0.8-0.3-1.6-0.9-2.2l-5.3-5.3l5.2-5.2c8.2,7.1,18.5,10.7,28.8,10.7
		c11.2,0,22.5-4.3,31-12.8c8.3-8.3,12.9-19.3,12.9-31C124.5,35.7,119.9,24.6,111.7,16.3L111.7,16.3z M22.6,116.1
		c-1.4,1.4-3.3,2.2-5.3,2.2c-2,0-3.9-0.8-5.3-2.2c-1.4-1.4-2.2-3.3-2.2-5.3c0-2,0.8-3.9,2.2-5.3l13.9-13.9l10.7,10.7L22.6,116.1z
		 M40.9,97.7L30.3,87.1l4.4-4.4l10.7,10.7L40.9,97.7z M107.2,74C92.6,88.7,68.7,88.7,54,74c-7.1-7.1-11-16.6-11-26.6
		c0-10.1,3.9-19.5,11-26.6c7.3-7.3,17-11,26.6-11c9.6,0,19.3,3.7,26.6,11c7.1,7.1,11,16.6,11,26.6C118.3,57.4,114.4,66.9,107.2,74
		L107.2,74z M107.2,74"/>
	<path d="M102.1,25.9c-11.9-11.9-31.1-11.9-43,0s-11.9,31.1,0,43c5.9,5.9,13.7,8.9,21.5,8.9c7.8,0,15.6-3,21.5-8.9v0
		C113.9,57.1,113.9,37.8,102.1,25.9L102.1,25.9z M97.6,64.5c-9.4,9.4-24.8,9.4-34.2,0c-9.4-9.4-9.4-24.8,0-34.2
		c4.7-4.7,10.9-7.1,17.1-7.1c6.2,0,12.4,2.4,17.1,7.1C107.1,39.7,107.1,55.1,97.6,64.5L97.6,64.5z M97.6,64.5"/>
</g>
</svg>
