<?xml version="1.0" encoding="utf-8"?>
<!-- Generator: Adobe Illustrator 21.1.0, SVG Export Plug-In . SVG Version: 6.00 Build 0)  -->
<svg version="1.1" id="Camada_1" xmlns="http://www.w3.org/2000/svg" xmlns:xlink="http://www.w3.org/1999/xlink" x="0px" y="0px"
	 viewBox="0 0 128 128" style="enable-background:new 0 0 128 128;" xml:space="preserve">
<path d="M118.4,53.7c-1.4,0-2.7,0.3-3.9,0.9c-1.8-2.2-4.5-3.7-7.6-3.7c-1.6,0-3.1,0.4-4.3,1.1l-0.1,0.1l-3.9,2.3
	c-1.8-2.1-4.4-3.5-7.4-3.5c-1.6,0-3.1,0.4-4.3,1.1L86.7,52l-15,9.2c-3.4-1-7.2-2.1-10.8-3.1C57,57,53.3,56,50.4,55.2
	c-1.5-0.4-2.8-0.7-3.8-0.9c-0.5-0.1-1-0.2-1.4-0.3c-0.4-0.1-0.8-0.1-1.2-0.1c-0.3,0-0.6,0-0.9,0.1c-1.1,0.1-2.7,0.5-4.5,0.9
	c-3.8,0.9-8.6,2.2-11.3,2.9v-4.5c0-3.1-2.6-5.7-5.7-5.7H5.7c-3.1,0-5.7,2.6-5.7,5.7v44.3c0,3.1,2.6,5.7,5.7,5.7h15.7
	c3.1,0,5.7-2.6,5.7-5.7v-3.4c3.4,0.7,10.9,2.4,18.9,4c5.4,1.1,10.9,2.2,15.5,3c2.3,0.4,4.3,0.8,6,1c1.7,0.2,3,0.4,3.9,0.4
	c0.7,0,1.5-0.1,2.2-0.4c1.4-0.4,3-1.1,4.9-2c6.5-3.2,15.8-9.1,24.5-14.9c8.7-5.8,16.9-11.6,20.9-14.4c2.5-1.7,3.9-4.7,3.9-7.7
	C128,58,123.7,53.7,118.4,53.7L118.4,53.7z M22.9,97.6c0,0.8-0.7,1.4-1.4,1.4H5.7c-0.8,0-1.4-0.7-1.4-1.4V53.3
	c0-0.8,0.7-1.4,1.4-1.4h15.7c0.8,0,1.4,0.7,1.4,1.4V97.6z M121.6,67.5c-4.9,3.4-16,11.2-26.6,18.1c-5.3,3.5-10.6,6.7-14.9,9.1
	c-2.1,1.2-4.1,2.1-5.6,2.8c-0.8,0.3-1.4,0.6-2,0.7c-0.5,0.1-0.9,0.2-1.1,0.2c-0.5,0-1.7-0.1-3.3-0.4c-5.6-0.8-16.2-2.9-25.3-4.8
	c-4.5-0.9-8.7-1.8-11.8-2.5c-1.8-0.4-3.1-0.7-4-0.9V62.3c0.4-0.1,1-0.3,1.6-0.4c2.3-0.6,5.7-1.5,8.8-2.3c1.5-0.4,3-0.7,4.2-1
	c0.6-0.1,1.1-0.2,1.5-0.3c0.4-0.1,0.7-0.1,0.7-0.1c0,0,0.2,0,0.5,0.1c1.2,0.2,3.6,0.7,6.6,1.5c8.9,2.3,23,6.5,28.6,8.3
	c2,0.6,3.7,1.5,4.9,2.6c0.6,0.5,1,1.1,1.3,1.7c0.3,0.6,0.5,1.3,0.5,2.1c0,1.7-0.7,3.2-1.8,4.3c-1.1,1.1-2.6,1.8-4.2,1.8L74.8,80
	l-18.9-2.4c-1.2-0.1-2.3,0.7-2.4,1.9c-0.2,1.2,0.7,2.2,1.9,2.4l19,2.4l5.9,0.6h0.1c5.7,0,10.4-4.6,10.4-10.4c0-1.4-0.3-2.8-0.9-4
	c-0.9-1.8-2.2-3.2-3.8-4.2c-1.6-1.1-3.3-1.8-5.1-2.4c-1-0.3-2.2-0.7-3.7-1.1l11.6-7.1c0.8-0.4,1.5-0.6,2.3-0.6
	c1.4,0,2.6,0.5,3.6,1.4L89,59.9c-1,0.6-1.4,1.9-0.7,2.9c0.6,1,1.9,1.4,2.9,0.8l13.4-7.9c0.8-0.4,1.5-0.6,2.4-0.6
	c1.5,0,2.8,0.6,3.8,1.6l-15.5,9.2c-1,0.6-1.4,1.9-0.7,2.9c0.6,1,1.9,1.4,2.9,0.7l16.8-10c0.2,0,0.3-0.1,0.5-0.1
	c0.3-0.1,0.6-0.4,0.8-0.7l0.5-0.3c0.8-0.4,1.5-0.6,2.4-0.6c1.5,0,2.8,0.6,3.8,1.6c1,1,1.6,2.3,1.6,3.8
	C123.7,65.1,122.9,66.7,121.6,67.5L121.6,67.5z M121.6,67.5"/>
</svg>
