<?xml version="1.0" encoding="utf-8"?>
<!-- Generator: Adobe Illustrator 21.1.0, SVG Export Plug-In . SVG Version: 6.00 Build 0)  -->
<svg version="1.1" id="Camada_1" xmlns="http://www.w3.org/2000/svg" xmlns:xlink="http://www.w3.org/1999/xlink" x="0px" y="0px"
	 viewBox="0 0 128 128" style="enable-background:new 0 0 128 128;" xml:space="preserve">
<g>
	<path d="M96,119.5c0.5,0,1.1-0.2,1.5-0.6l12.8-12.8c0.4-0.4,0.6-0.9,0.6-1.5V19.2c0-1.2-1-2.1-2.1-2.1H96c-1.2,0-2.1,1-2.1,2.1
		c0,1.2,1,2.1,2.1,2.1h10.7v82.4l-12.2,12.2c-0.8,0.8-0.8,2.2,0,3C94.9,119.3,95.5,119.5,96,119.5L96,119.5z M96,119.5"/>
	<path d="M32,21.3c1.2,0,2.1-1,2.1-2.1c0-1.2-1-2.1-2.1-2.1H19.2C18,17,17,18,17,19.2V111c0,4.7,3.8,8.5,8.5,8.5h61.9
		c1.2,0,2.1-1,2.1-2.1v-12.8c0-1,1-2.1,2.1-2.1h8.5c1.2,0,2.1-1,2.1-2.1c0-1.2-1-2.1-2.1-2.1h-8.5c-3.4,0-6.4,3-6.4,6.4v10.7H25.6
		c-2.4,0-4.3-1.9-4.3-4.3V21.3H32z M32,21.3"/>
	<path d="M64,8.5c-2.4,0-4.3,1.9-4.3,4.3c0,2.4,1.9,4.3,4.3,4.3c2.4,0,4.3-1.9,4.3-4.3C68.3,10.4,66.4,8.5,64,8.5L64,8.5z M64,8.5"
		/>
	<path d="M108.8,8.5H96c-1.2,0-2.1,1-2.1,2.1c0,1.2,1,2.1,2.1,2.1h12.8c3.1,0,6.4,3.3,6.4,6.4v98.2c0,3.1-3.3,6.4-6.4,6.4H19.2
		c-3.1,0-6.4-3.3-6.4-6.4V19.2c0-3.1,3.3-6.4,6.4-6.4H32c1.2,0,2.1-1,2.1-2.1c0-1.2-1-2.1-2.1-2.1H19.2c-5.5,0-10.7,5.2-10.7,10.7
		v98.2c0,5.5,5.2,10.7,10.7,10.7h89.7c5.5,0,10.7-5.2,10.7-10.7V19.2C119.5,13.7,114.3,8.5,108.8,8.5L108.8,8.5z M108.8,8.5"/>
	<path d="M25.6,70.4c0,1.2,1,2.1,2.1,2.1h8.5c0.9,0,1.7-0.6,2-1.5l6.5-19.5l15.1,45.2c0.3,0.9,1.1,1.4,2,1.5h0.1
		c0.9,0,1.7-0.5,2-1.4l13.2-33.9l4.2,8.5c0.4,0.7,1.1,1.2,1.9,1.2H90c0.9,2.5,3.2,4.3,6,4.3c3.5,0,6.4-2.9,6.4-6.4
		c0-3.5-2.9-6.4-6.4-6.4c-2.8,0-5.1,1.8-6,4.3h-5.5l-5.8-11.6c-0.4-0.8-1.2-1.2-2-1.2c-0.8,0-1.6,0.6-1.9,1.4L62,89.7L46.8,44.1
		c-0.3-0.9-1.1-1.5-2-1.5c-0.9,0-1.7,0.6-2,1.5l-8.1,24.2h-7C26.5,68.3,25.6,69.2,25.6,70.4L25.6,70.4z M96,68.3
		c1.2,0,2.1,1,2.1,2.1c0,1.2-1,2.1-2.1,2.1c-1.2,0-2.1-1-2.1-2.1C93.9,69.2,94.8,68.3,96,68.3L96,68.3z M96,68.3"/>
	<path d="M40.5,25.6h47c1.2,0,2.1-1,2.1-2.1V10.6c0-1.2-1-2.1-2.1-2.1H76.1C74.3,3.5,69.5,0,64,0c-5.5,0-10.3,3.5-12.1,8.5H40.5
		c-1.2,0-2.1,1-2.1,2.1v12.8C38.4,24.6,39.3,25.6,40.5,25.6L40.5,25.6z M42.7,12.8h10.9c1,0,1.9-0.7,2.1-1.7c0.8-4,4.3-6.8,8.4-6.8
		c4,0,7.6,2.9,8.4,6.8c0.2,1,1.1,1.7,2.1,1.7h10.9v8.5H42.7V12.8z M42.7,12.8"/>
</g>
</svg>
