<?xml version="1.0" encoding="utf-8"?>
<!-- Generator: Adobe Illustrator 21.1.0, SVG Export Plug-In . SVG Version: 6.00 Build 0)  -->
<svg version="1.1" id="Camada_1" xmlns="http://www.w3.org/2000/svg" xmlns:xlink="http://www.w3.org/1999/xlink" x="0px" y="0px"
	 viewBox="0 0 128 128" style="enable-background:new 0 0 128 128;" xml:space="preserve">
<g>
	<path d="M64,22c1.5,0,2.7-1.2,2.7-2.7v-1.4c0-1.5-1.2-2.7-2.7-2.7c-1.5,0-2.7,1.2-2.7,2.7v1.4C61.3,20.8,62.5,22,64,22L64,22z
		 M64,22"/>
	<path d="M64,106c-1.5,0-2.7,1.2-2.7,2.7v1.4c0,1.5,1.2,2.7,2.7,2.7c1.5,0,2.7-1.2,2.7-2.7v-1.4C66.7,107.2,65.5,106,64,106L64,106z
		 M64,106"/>
	<path d="M19.3,61.3h-1.4c-1.5,0-2.7,1.2-2.7,2.7c0,1.5,1.2,2.7,2.7,2.7h1.4c1.5,0,2.7-1.2,2.7-2.7C22,62.5,20.8,61.3,19.3,61.3
		L19.3,61.3z M19.3,61.3"/>
	<path d="M110.1,61.3h-1.4c-1.5,0-2.7,1.2-2.7,2.7c0,1.5,1.2,2.7,2.7,2.7h1.4c1.5,0,2.7-1.2,2.7-2.7
		C112.8,62.5,111.6,61.3,110.1,61.3L110.1,61.3z M110.1,61.3"/>
	<path d="M33.4,29.6c-1.1-1.1-2.7-1.1-3.8,0c-1.1,1.1-1.1,2.7,0,3.8l0.9,0.9c0.5,0.5,1.2,0.8,1.9,0.8c0.7,0,1.4-0.3,1.9-0.8
		c1.1-1.1,1.1-2.7,0-3.8L33.4,29.6z M33.4,29.6"/>
	<path d="M30.5,93.7l-0.9,0.9c-1.1,1.1-1.1,2.7,0,3.8c0.5,0.5,1.2,0.8,1.9,0.8c0.7,0,1.4-0.3,1.9-0.8l0.9-0.9c1.1-1.1,1.1-2.7,0-3.8
		C33.2,92.6,31.6,92.6,30.5,93.7L30.5,93.7z M30.5,93.7"/>
	<path d="M94.6,29.6l-0.9,0.9c-1.1,1.1-1.1,2.7,0,3.8c0.5,0.5,1.2,0.8,1.9,0.8c0.7,0,1.4-0.3,1.9-0.8l0.9-0.9c1.1-1.1,1.1-2.7,0-3.8
		C97.4,28.5,95.7,28.5,94.6,29.6L94.6,29.6z M94.6,29.6"/>
	<path d="M66.7,62.9V38.2c0-1.5-1.2-2.7-2.7-2.7c-1.5,0-2.7,1.2-2.7,2.7V64c0,0.7,0.3,1.4,0.8,1.9l29.7,29.7
		c0.5,0.5,1.2,0.8,1.9,0.8c0.7,0,1.4-0.3,1.9-0.8c1.1-1.1,1.1-2.7,0-3.8L66.7,62.9z M66.7,62.9"/>
	<path d="M64,1.6C29.6,1.6,1.6,29.6,1.6,64c0,34.4,27.9,62.4,62.4,62.4c34.4,0,62.4-27.9,62.4-62.4C126.4,29.6,98.4,1.6,64,1.6
		L64,1.6z M64,120.9C32.5,120.9,7.1,95.5,7.1,64C7.1,32.5,32.5,7.1,64,7.1c31.5,0,56.9,25.5,56.9,56.9
		C120.9,95.5,95.5,120.9,64,120.9L64,120.9z M64,120.9"/>
</g>
</svg>
